<svg xmlns="http://www.w3.org/2000/svg" width="96" height="124" viewBox="0 0 96 124">
  <defs>
    <style>
      .cls-1 {
        fill: #828698;
      }

      .cls-2, .cls-6 {
        fill: none;
      }

      .cls-3, .cls-5 {
        fill: #fff;
      }

      .cls-4 {
        font-size: 13.33px;
        font-family: SegoeUIEmoji, Segoe UI Emoji;
      }

      .cls-5 {
        stroke: #dbdbdb;
      }

      .cls-5, .cls-6 {
        stroke-linecap: round;
        stroke-width: 2px;
      }

      .cls-6 {
        stroke: #828698;
      }
    </style>
  </defs>
  <g id="group" data-name="group" transform="translate(-426 -3011)">
    <path id="减去_1" data-name="减去 1" class="cls-1" d="M27.3,36H6.7a6.188,6.188,0,0,1-4.036-1.028c-.928-.767-1.379-2.041-1.379-3.9L0,3.461c0-.4-.024-.772-.047-1.134-.058-.9-.1-1.61.266-2A1.293,1.293,0,0,1,1.208,0H32.792a1.293,1.293,0,0,1,.988.323c.369.394.324,1.1.267,2C34.024,2.69,34,3.064,34,3.461L32.717,31.077c0,1.854-.451,3.128-1.379,3.9A6.188,6.188,0,0,1,27.3,36ZM21.49,7.846A1.926,1.926,0,0,0,19.566,9.77V26.23a1.925,1.925,0,0,0,3.849,0V9.77A1.927,1.927,0,0,0,21.49,7.846Zm-8.981,0A1.926,1.926,0,0,0,10.585,9.77V26.23a1.925,1.925,0,0,0,3.849,0V9.77A1.927,1.927,0,0,0,12.509,7.846Z" transform="translate(432 3061)"/>
    <rect id="矩形_77" data-name="矩形 77" class="cls-1" width="42" height="4" rx="2" transform="translate(428 3054)"/>
    <rect id="矩形_78" data-name="矩形 78" class="cls-1" width="18" height="4" rx="2" transform="translate(440 3049)"/>
    <rect id="background" class="cls-2" width="96" height="124" transform="translate(426 3011)"/>
    <g id="组_45" data-name="组 45" transform="translate(426 3011)">
      <path id="路径_7" data-name="路径 7" d="M13,1.5v13L1.74,8Z"/>
      <path id="路径_8" data-name="路径 8" d="M17.5,3h13L24,14.26Z"/>
      <path id="路径_9" data-name="路径 9" d="M35,1.5v13L46.26,8Z"/>
    </g>
    <g id="组_46" data-name="组 46" transform="translate(426 3027)">
      <path id="路径_10" data-name="路径 10" class="cls-3" d="M13,1.5v13L1.74,8Z"/>
      <path id="路径_11" data-name="路径 11" class="cls-3" d="M17.5,3h13L24,14.26Z"/>
      <path id="路径_12" data-name="路径 12" class="cls-3" d="M35,1.5v13L46.26,8Z"/>
    </g>
    <text id="_" data-name="✓" class="cls-4" transform="translate(481.5 3039)"><tspan x="-4.992" y="0">✓</tspan></text>
    <circle id="椭圆_9" data-name="椭圆 9" class="cls-5" cx="15" cy="15" r="15" transform="translate(459 3104)"/>
    <path id="路径_18" data-name="路径 18" class="cls-6" d="M48,101.6v12.8" transform="translate(426 3011)"/>
    <path id="路径_19" data-name="路径 19" class="cls-6" d="M41.6,108H54.4" transform="translate(426 3011)"/>
    <circle id="椭圆_10" data-name="椭圆 10" class="cls-5" cx="15" cy="15" r="15" transform="translate(491 3104)"/>
    <path id="路径_20" data-name="路径 20" class="cls-6" d="M73.6,108H86.4" transform="translate(426 3011)"/>
    <circle id="椭圆_9-2" data-name="椭圆 9" class="cls-5" cx="15" cy="15" r="15" transform="translate(427 3104)"/>
    <path id="路径_21" data-name="路径 21" class="cls-6" d="M73.6,108H83.761" transform="translate(363.32 3008.5)"/>
    <path id="路径_22" data-name="路径 22" class="cls-6" d="M73.6,108H83.761" transform="translate(363.32 3013.5)"/>
  </g>
</svg>
