<svg width="131" height="125" xmlns="http://www.w3.org/2000/svg" xmlns:xlink="http://www.w3.org/1999/xlink" overflow="hidden"><defs><clipPath id="clip0"><rect x="574" y="297" width="131" height="125"/></clipPath><clipPath id="clip1"><rect x="575" y="298" width="130" height="124"/></clipPath><clipPath id="clip2"><rect x="575" y="298" width="130" height="124"/></clipPath><clipPath id="clip3"><rect x="575" y="298" width="130" height="124"/></clipPath></defs><g clip-path="url(#clip0)" transform="translate(-574 -297)"><g clip-path="url(#clip1)"><g clip-path="url(#clip2)"><g clip-path="url(#clip3)"><path d="M6.944 124C3.10894 124 8.81073e-16 120.891 8.81073e-16 117.056L0 56.544C-8.81073e-16 52.7089 3.10894 49.6 6.944 49.6L122.016 49.6C125.851 49.6 128.96 52.7089 128.96 56.544L128.96 117.056C128.96 120.891 125.851 124 122.016 124ZM4.62966 34.72C2.07316 34.72 0.000547602 32.6478-1.8164e-07 30.0913L0 6.944C-8.81073e-16 3.10894 3.10894 0 6.944 -8.81073e-16L48.4324 0C58.2417-0.00160875 66.5798 7.16564 68.0512 16.864L115.734 16.864C123.039 16.8646 128.96 22.7864 128.96 30.0913 128.959 32.6478 126.887 34.72 124.33 34.72Z" fill="#6D50F0" fill-rule="nonzero" fill-opacity="1" transform="matrix(1.00806 0 0 1 575 298)"/></g></g></g></g></svg>