<svg width="848" height="848" xmlns="http://www.w3.org/2000/svg" xmlns:xlink="http://www.w3.org/1999/xlink" overflow="hidden"><defs><clipPath id="clip0"><rect x="169" y="8" width="848" height="848"/></clipPath><clipPath id="clip1"><rect x="170" y="9" width="847" height="847"/></clipPath><clipPath id="clip2"><rect x="170" y="9" width="847" height="847"/></clipPath><clipPath id="clip3"><rect x="170" y="8" width="3923" height="849"/></clipPath><linearGradient x1="497.014" y1="1401.14" x2="497.014" y2="1783.43" gradientUnits="userSpaceOnUse" spreadMethod="pad" id="fill4"><stop offset="0" stop-color="#6B50F3" stop-opacity="1"/><stop offset="1" stop-color="#DE8CFF" stop-opacity="1"/></linearGradient><linearGradient x1="130.777" y1="1401.14" x2="130.777" y2="1764.78" gradientUnits="userSpaceOnUse" spreadMethod="pad" id="fill5"><stop offset="0" stop-color="#FFA064" stop-opacity="1"/><stop offset="1" stop-color="#F37E4B" stop-opacity="1"/></linearGradient><linearGradient x1="254.024" y1="1506.82" x2="399.72" y2="1590.21" gradientUnits="userSpaceOnUse" spreadMethod="pad" id="fill6"><stop offset="0" stop-color="#50D2F0" stop-opacity="1"/><stop offset="1" stop-color="#7864F0" stop-opacity="1"/></linearGradient></defs><g clip-path="url(#clip0)" transform="translate(-169 -8)"><g clip-path="url(#clip1)"><g clip-path="url(#clip2)"><g clip-path="url(#clip3)"><path d="M1627.04 1293.09C1937.31 1293.09 2048.68 1404.46 2048.68 1714.74 2048.68 2025.01 1937.31 2136.38 1627.04 2136.38 1316.76 2136.38 1205.4 2025.01 1205.4 1714.74 1205.4 1404.46 1316.76 1293.09 1627.04 1293.09Z" fill="#FFFFFF" fill-rule="evenodd" fill-opacity="1" transform="matrix(1 0 0 1 -1034.8 -1279.85)"/><path d="M589.232 1401.14C595.829 1401.14 601.178 1406.49 601.179 1413.09 601.179 1414.06 601.059 1415.04 600.822 1415.99 585.843 1475.91 529.857 1699.84 513.485 1765.34 510.826 1775.97 501.269 1783.43 490.305 1783.43L404.796 1783.43C398.199 1783.43 392.85 1778.09 392.849 1771.49 392.849 1770.51 392.969 1769.54 393.206 1768.59L480.54 1419.24C483.199 1408.6 492.756 1401.14 503.72 1401.14Z" fill="url(#fill4)" fill-rule="evenodd" transform="matrix(1 0 0 1 253.774 -1130.16)"/><path d="M55.8939 1415.99C54.2929 1409.59 58.183 1403.1 64.5826 1401.5 65.5314 1401.26 66.5058 1401.14 67.4839 1401.14L152.993 1401.14C163.957 1401.14 173.514 1408.6 176.173 1419.24L204.593 1532.91C206.495 1540.52 206.495 1548.48 204.593 1556.09 195.293 1593.29 166.078 1710.15 153.552 1760.25 152.755 1763.45 149.514 1765.4 146.314 1764.6 144.171 1764.07 142.497 1762.4 141.963 1760.25Z" fill="url(#fill5)" fill-rule="evenodd" transform="matrix(1 0 0 1 280.475 -1130.16)"/><path d="M212.808 1783.43C199.613 1783.44 188.916 1772.74 188.915 1759.55 188.915 1757.59 189.154 1755.64 189.629 1753.75 208.523 1678.17 258.025 1480.16 273.255 1419.24 275.914 1408.61 285.471 1401.14 296.435 1401.14L354.697 1401.14C365.661 1401.14 375.218 1408.61 377.877 1419.24 385.349 1449.13 400.061 1507.99 406.294 1532.91 408.196 1540.52 408.196 1548.48 406.294 1556.09 396.994 1593.29 367.779 1710.15 355.254 1760.25 354.456 1763.45 351.215 1765.4 348.014 1764.6 345.871 1764.07 344.198 1762.4 343.664 1760.25 341.693 1752.37 339.416 1743.26 337.156 1734.22 335.556 1727.82 329.069 1723.93 322.668 1725.53 318.388 1726.6 315.046 1729.94 313.976 1734.22 311.211 1745.28 308.42 1756.45 306.197 1765.34 303.538 1775.97 293.981 1783.43 283.017 1783.43Z" fill="url(#fill6)" fill-rule="evenodd" transform="matrix(1 0 0 1 269.917 -1130.16)"/><path d="M1160.26 843.274C1141.3 842.932 1123.55 834.009 1107.48 816.74 1100.79 809.62 1094.93 801.774 1089.99 793.349 1077.88 804.022 1064.09 812.634 1049.19 818.842 1025.82 828.656 1000.72 833.707 975.365 833.7 937.061 833.7 902.475 824.963 872.566 807.73 870.936 806.791 869.323 805.833 867.728 804.856 840.452 788.277 817.616 765.315 801.187 737.95 799.901 735.816 798.652 733.667 797.441 731.504 782.385 704.692 772.995 675.076 769.85 644.488 767.641 624.612 766.348 600.235 766.007 571.935 765.945 566.849 765.915 561.638 765.915 556.302L765.915 555.394C765.936 517.014 767.257 484.454 769.843 458.605 773.203 425.888 783.697 394.305 800.584 366.082 800.785 365.744 800.987 365.407 801.191 365.07 818.609 336.076 843.188 312.046 872.568 295.288 902.477 278.056 937.063 269.318 975.367 269.318 977.513 269.318 979.672 269.361 981.844 269.448 1001.91 270.256 1023.03 274.795 1044.74 282.971 1055.72 287.032 1066.27 292.155 1076.24 298.268 1077.77 299.219 1079.27 300.187 1080.73 301.172 1082.56 298.593 1084.61 296.173 1086.85 293.939 1097.32 283.474 1110.83 277.942 1125.91 277.942 1141 277.942 1154.51 283.474 1164.98 293.939 1175.45 304.404 1180.98 317.906 1180.98 332.984L1180.98 660.766C1180.98 702.119 1182.3 720.265 1183.47 728.222 1183.52 728.562 1183.57 728.884 1183.62 729.188 1184.74 736.082 1186.54 737.841 1186.55 737.857 1196.23 742.505 1204.27 749.964 1209.64 759.259 1214.77 768.052 1217.46 778.057 1217.43 788.237 1217.45 796.785 1215.46 805.219 1211.62 812.858 1206.95 822.35 1199.56 830.234 1190.39 835.502 1181.59 840.632 1171.58 843.317 1161.39 843.28 1161.02 843.28 1160.64 843.279 1160.26 843.274ZM975.364 732.24C1004.08 732.24 1025.79 723.852 1041.75 706.595 1058.61 688.362 1068.16 666.772 1070.95 640.59 1074.04 610.996 1075.61 581.261 1075.64 551.506 1075.64 548.238 1075.62 544.97 1075.58 541.701 1075.27 515.086 1073.72 488.465 1070.95 462.425 1068.18 436.977 1058.2 415.414 1040.43 396.544 1023.49 378.56 1002.21 369.819 975.364 369.819 948.519 369.819 927.237 378.562 910.302 396.544 892.533 415.413 882.55 436.976 879.778 462.468 877.304 484.727 876.051 513.058 876.051 546.714 876.051 584.255 877.31 615.877 879.795 640.707 882.569 666.772 892.12 688.362 908.979 706.594 924.438 723.312 945.3 731.706 972.694 732.217 973.579 732.232 974.469 732.24 975.364 732.24ZM2760.43 833.656C2703.26 832.683 2656.12 815.591 2620.25 782.817 2583.09 748.847 2562.82 701.632 2560.04 642.477 2559.89 639.628 2559.74 636.812 2559.61 634.03 2557.97 601.207 2557.14 573.127 2557.14 550.552 2557.14 528.852 2557.87 503.041 2559.31 473.668 2559.54 469.016 2559.78 464.275 2560.04 459.446 2562.82 400.468 2583.06 353.112 2620.18 318.831 2657.14 284.707 2706.08 267.404 2765.63 267.404 2825.19 267.404 2874.13 284.704 2911.09 318.825 2912.1 319.763 2913.11 320.71 2914.1 321.666 2949.31 355.704 2968.53 402.078 2971.23 459.575 2971.48 464.654 2971.7 469.418 2971.89 473.867 2972.75 493.406 2973.17 506.958 2973.17 515.08L2974.12 541.252C2974.13 556.995 2968.6 570.497 2958.13 580.963 2947.66 591.428 2934.15 596.96 2919.06 596.96L2669.43 596.96C2669.72 609.648 2670.27 624.269 2671.09 640.664 2672.2 666.514 2680.93 687.873 2697.81 706.099 2714.09 723.683 2736.27 732.232 2765.64 732.232L2766.61 732.232C2793.83 732.134 2816.06 727.943 2832.69 719.768 2849.22 711.641 2864.75 697.243 2878.83 676.978 2890.04 662.66 2904.39 655.559 2920.98 655.559 2931.49 655.488 2941.77 658.582 2950.5 664.438 2965.08 673.156 2973.18 687.957 2973.18 706.768 2973.18 717.73 2970.38 726.885 2964.85 734.005 2940.96 770.305 2915.01 796.119 2887.68 810.785 2886.91 811.197 2886.14 811.6 2885.37 811.995 2856.87 826.595 2817.71 833.693 2765.64 833.693 2763.9 833.697 2762.16 833.685 2760.43 833.654ZM2861.76 495.509C2861.45 485.515 2860.93 474.162 2860.19 461.553 2859.08 435.541 2850.34 414.181 2833.47 395.955 2832.86 395.302 2832.25 394.662 2831.63 394.035 2815.53 377.748 2793.91 369.822 2765.63 369.821 2736.27 369.821 2714.08 378.37 2697.8 395.955 2697.41 396.382 2697.02 396.811 2696.63 397.242 2680.52 415.185 2672.17 436.143 2671.1 461.252 2670.38 473.55 2669.86 484.575 2669.55 494.328 2669.54 494.724 2669.52 495.118 2669.51 495.51ZM1961.83 833.239C1929.83 831.216 1900.37 822.486 1874.08 807.212 1843.98 789.721 1819.83 766.094 1802.28 736.988 1801.94 736.426 1801.61 735.863 1801.28 735.301 1784.63 707.271 1774.28 675.957 1770.94 643.529 1770.87 642.888 1770.8 642.242 1770.73 641.592 1768.27 618.453 1767.01 589.411 1767.01 555.342 1767.01 516.551 1768.33 483.987 1770.94 458.559 1774.35 425.461 1785.05 393.53 1802.29 365.069 1819.83 335.962 1843.98 312.335 1874.09 294.843 1904.33 277.27 1938.77 268.36 1976.46 268.36 1998.87 268.36 2022.44 273.922 2046.52 284.893 2055.38 288.901 2063.88 293.649 2071.94 299.084L2071.94 59.8347C2071.94 44.7561 2077.48 31.2546 2087.95 20.7895 2098.42 10.3243 2111.93 4.79178 2127.01 4.79178 2129.02 4.79178 2130.99 4.88887 2132.94 5.08304 2158.83 7.67643 2179.28 28.1887 2181.81 54.0854 2181.99 55.9735 2182.08 57.8899 2182.08 59.8347L2182.08 768.112C2182.08 782.411 2176.48 795.815 2165.88 806.874 2165.75 807.006 2165.62 807.137 2165.49 807.268 2154.75 818.29 2141.45 824.113 2127.01 824.113 2111.93 824.113 2098.42 818.581 2087.95 808.116L2087.8 807.963C2084.67 804.825 2081.93 801.321 2079.64 797.527 2070.42 804.207 2060.64 810.056 2050.39 815.005 2047.21 816.57 2044.04 818.036 2040.88 819.406 2019.74 828.552 1998.88 833.348 1978.71 833.677 1977.96 833.689 1977.21 833.695 1976.47 833.695 1971.53 833.698 1966.66 833.546 1961.83 833.239ZM1976.46 732.24C1977.25 732.24 1978.02 732.234 1978.8 732.221 2005.75 731.777 2026.4 723.588 2041.81 707.234 2042.13 706.898 2042.44 706.56 2042.75 706.218 2043.71 705.163 2044.65 704.097 2045.57 703.021L2045.65 702.92 2045.66 702.911C2060.21 685.738 2068.76 665.871 2071.73 642.383 2071.84 641.471 2071.95 640.555 2072.05 639.632 2072.48 635.435 2072.89 631.236 2073.27 627.035 2075.57 601.367 2076.74 575.688 2076.74 550.551 2076.72 521.115 2075.16 491.7 2072.05 462.429 2071.74 459.646 2071.35 456.908 2070.88 454.217 2067 432.296 2057.35 413.35 2041.53 396.549 2024.59 378.565 2003.31 369.824 1976.46 369.824 1949.62 369.824 1928.34 378.567 1911.4 396.549 1893.63 415.418 1883.65 436.982 1880.88 462.473 1880.43 468.67 1880.03 474.715 1879.67 480.608 1878.01 507.497 1877.15 531.09 1877.15 550.553 1877.15 570.727 1878.02 594.898 1879.75 622.587 1880.11 628.334 1880.51 634.231 1880.94 640.278 1881.02 641.077 1881.12 641.873 1881.21 642.665 1884.28 667.226 1893.78 688.229 1910.17 706.22 1926.09 723.696 1947.72 732.208 1976.3 732.241ZM1479.75 833.7C1442.06 833.7 1407.61 824.789 1377.37 807.215 1347.27 789.725 1323.11 766.098 1305.57 736.991 1288.34 708.538 1277.64 676.619 1274.23 643.531 1271.63 620.086 1270.3 590.372 1270.3 555.344 1270.3 516.553 1271.62 483.989 1274.23 458.561 1277.63 425.464 1288.34 393.534 1305.57 365.072 1323.11 335.966 1347.27 312.339 1377.37 294.847 1407.61 277.274 1442.06 268.364 1479.75 268.364 1502.16 268.364 1525.73 273.926 1549.81 284.897 1558.66 288.905 1567.17 293.652 1575.23 299.088L1575.23 59.8347C1575.13 49.6236 1577.9 39.5904 1583.23 30.877 1585.49 27.2149 1588.18 23.83 1591.23 20.7914 1595.98 16.0107 1601.57 12.1555 1607.73 9.42269 1614.24 6.57509 1621.25 5.01384 1628.36 4.82486L1628.78 4.81319C1629.28 4.80065 1629.79 4.79437 1630.29 4.79437 1644.97 4.79437 1658.15 10.0279 1668.49 19.9442 1668.78 20.2232 1669.07 20.5056 1669.36 20.7914 1679.83 31.2565 1685.36 44.7594 1685.36 59.8366L1685.36 768.112C1685.36 782.411 1679.76 795.815 1669.16 806.874 1669.03 807.006 1668.9 807.137 1668.78 807.268 1668.39 807.662 1668 808.048 1667.61 808.428L1667.37 808.667 1667.35 808.686C1667.1 808.922 1666.86 809.156 1666.61 809.387 1656.26 819.035 1643.78 824.112 1630.29 824.112 1615.68 824.112 1602.54 818.922 1592.22 809.081 1591.88 808.764 1591.55 808.441 1591.23 808.115 1588.03 804.937 1585.24 801.381 1582.91 797.526 1573.7 804.206 1563.91 810.055 1553.67 815.004 1529.28 827.02 1505.18 833.297 1481.99 833.678 1481.24 833.69 1480.49 833.696 1479.74 833.696ZM1479.75 732.24C1480.53 732.24 1481.31 732.234 1482.09 732.221 1509.59 731.766 1530.53 723.249 1546.04 706.218 1562.37 688.299 1571.86 667.392 1575.02 642.382 1575.13 641.471 1575.24 640.554 1575.34 639.632 1575.77 635.435 1576.18 631.236 1576.56 627.034 1578.86 601.367 1580.03 575.688 1580.03 550.551 1580.03 525.654 1578.88 500.458 1576.62 475.473 1576.23 471.118 1575.8 466.769 1575.34 462.429 1572.6 437.278 1562.82 415.918 1545.44 397.212 1545.23 396.99 1545.02 396.768 1544.82 396.548 1544.25 395.95 1543.69 395.363 1543.11 394.786 1526.46 377.991 1505.71 369.821 1479.75 369.82 1452.91 369.82 1431.63 378.563 1414.69 396.546 1396.92 415.414 1386.94 436.978 1384.17 462.469 1383.87 466.645 1383.59 470.754 1383.33 474.794 1381.42 504.103 1380.44 529.698 1380.44 550.551 1380.44 570.725 1381.31 594.895 1383.04 622.584 1383.4 628.331 1383.8 634.228 1384.23 640.275 1386.96 665.865 1396.54 687.645 1413.46 706.218 1428.97 723.249 1449.92 731.768 1477.42 732.221 1478.19 732.234 1478.97 732.24 1479.75 732.24ZM527.556 827.949C515.314 828.018 503.403 823.976 493.73 816.472 493.531 816.32 493.332 816.167 493.135 816.013 483.372 808.485 476.57 797.76 473.922 785.72L365.436 311.725 256.126 785.713C253.5 797.655 246.788 808.305 237.148 815.825 236.873 816.042 236.596 816.257 236.317 816.47 226.316 824.086 214.612 827.947 201.532 827.947 188.883 827.947 177.357 823.811 167.275 815.651 166.963 815.399 166.654 815.144 166.349 814.887 157.031 807.164 150.542 796.567 147.898 784.757L1.13454 110.758C0.38483 107.046 0.00479464 103.268-3.03127e-08 99.4812 0.0345743 88.8678 3.10443 78.4858 8.84731 69.5603 9.15911 69.0656 9.47696 68.5775 9.80087 68.0962 17.7692 56.254 29.411 48.4971 43.6171 45.5728 47.2315 44.5622 51.4486 44.0874 56.7372 44.0874 69.3864 44.0874 80.9115 48.224 90.9939 56.3824 101.075 64.3828 107.75 75.9057 109.676 88.6307L205.275 548.465 310.903 86.3565C311.245 84.8736 311.639 83.4225 312.084 82.0032 315.344 71.4417 321.868 62.1855 330.719 55.5644 335.777 51.6883 341.467 48.717 347.538 46.782 347.754 46.7132 347.97 46.646 348.187 46.5802L348.191 46.5802C351.678 45.5255 355.258 44.8059 358.881 44.4312 359.157 44.4022 359.433 44.3752 359.708 44.3501 359.915 44.3313 360.123 44.3131 360.33 44.2962L360.689 44.2683C362.272 44.1494 363.876 44.0897 365.502 44.0893 377.744 44.0213 389.654 48.0627 399.326 55.5664 409.4 63.1129 416.429 74.0259 419.134 86.3189L524.776 548.457 620.55 87.6752C622.348 75.8304 628.806 64.6731 639.056 56.383 649.138 48.2246 660.664 44.088 673.312 44.088 678.602 44.088 682.819 44.5628 686.434 45.5735 701.218 48.6171 713.224 56.8942 721.203 69.5609 729.05 81.6461 731.843 96.3279 728.98 110.45L582.202 784.53C579.59 796.373 573.123 807.015 563.815 814.789 563.473 815.079 563.127 815.366 562.778 815.65 552.695 823.809 541.169 827.945 528.52 827.945ZM2429.06 820.282C2410.04 820.271 2391.2 816.547 2373.6 809.319 2355.68 802.003 2339.41 791.166 2325.75 777.451 2325.21 776.91 2324.68 776.366 2324.15 775.818 2311.18 762.513 2300.9 746.831 2293.87 729.632 2292.7 726.778 2291.63 723.902 2290.65 721.005 2285.52 705.931 2282.9 690.116 2282.9 674.193L2282.9 55.0422C2282.9 39.9631 2288.44 26.4615 2298.91 15.9957 2309.38 5.52997 2322.88 0 2337.97 0 2352.61-0.115561 2366.7 5.52588 2377.21 15.7077 2387.93 25.7674 2394 39.8118 2393.99 54.5077L2393.99 674.186C2393.99 683.288 2397.24 691.523 2403.91 699.325 2411.72 705.992 2419.95 709.235 2429.06 709.235 2459.94 709.367 2484.94 734.358 2485.09 765.236 2485.24 780.117 2479.16 794.383 2468.31 804.571 2457.8 814.754 2443.7 820.395 2429.06 820.28Z" fill="#FFFFFF" fill-rule="nonzero" fill-opacity="1" transform="matrix(1 0 0 1 1117.67 8.46701)"/></g></g></g></g></svg>