<svg xmlns="http://www.w3.org/2000/svg" xmlns:xlink="http://www.w3.org/1999/xlink" width="6044.898" height="1307.377" viewBox="0 0 6044.898 1307.377">
  <defs>
    <linearGradient id="linear-gradient" x1="0.5" x2="0.5" y2="1" gradientUnits="objectBoundingBox">
      <stop offset="0" stop-color="#6b50f3"/>
      <stop offset="1" stop-color="#de8cff"/>
    </linearGradient>
    <linearGradient id="linear-gradient-2" x1="0.5" x2="0.5" y2="1" gradientUnits="objectBoundingBox">
      <stop offset="0" stop-color="#ffa064"/>
      <stop offset="1" stop-color="#f37e4b"/>
    </linearGradient>
    <linearGradient id="linear-gradient-3" x1="0.241" y1="0.333" x2="1.02" y2="0.438" gradientUnits="objectBoundingBox">
      <stop offset="0" stop-color="#50d2f0"/>
      <stop offset="1" stop-color="#7864f0"/>
    </linearGradient>
  </defs>
  <g id="组_35" data-name="组 35" transform="translate(-5985 -2588.998)">
    <path id="路径_5" data-name="路径 5" d="M2508.235,1993.433c478.321,0,650,171.679,650,650s-171.679,650-650,650-650-171.679-650-650S2029.914,1993.433,2508.235,1993.433Z" transform="translate(4126.765 602.941)" fill="#fff" fill-rule="evenodd"/>
    <g id="组_29" data-name="组 29" transform="translate(416 2012.704)">
      <path id="路径_1" data-name="路径 1" d="M908.359,2160a18.415,18.415,0,0,1,17.867,22.883c-23.091,92.37-109.4,437.594-134.638,538.555a36.832,36.832,0,0,1-35.734,27.9H624.033a18.415,18.415,0,0,1-17.867-22.883L740.8,2187.9a36.832,36.832,0,0,1,35.734-27.9Z" transform="translate(5697.223 -1179)" fill-rule="evenodd" fill="url(#linear-gradient)"/>
      <path id="路径_2" data-name="路径 2" d="M86.166,2182.883A18.414,18.414,0,0,1,104.033,2160H235.854a36.832,36.832,0,0,1,35.734,27.9L315.4,2363.138a73.641,73.641,0,0,1,0,35.729c-14.336,57.35-59.375,237.5-78.684,314.735a9.206,9.206,0,0,1-17.866,0Z" transform="translate(5738.385 -1179)" fill-rule="evenodd" fill="url(#linear-gradient-2)"/>
      <path id="路径_3" data-name="路径 3" d="M328.065,2749.34a36.831,36.831,0,0,1-35.734-45.766c29.128-116.514,105.44-421.764,128.918-515.672a36.832,36.832,0,0,1,35.734-27.9H546.8a36.832,36.832,0,0,1,35.734,27.9c11.52,46.079,34.2,136.81,43.808,175.236a73.642,73.642,0,0,1,0,35.729c-14.336,57.35-59.374,237.5-78.683,314.735a9.207,9.207,0,0,1-17.867,0c-3.038-12.146-6.549-26.2-10.033-40.13a18.417,18.417,0,0,0-35.734,0c-4.263,17.054-8.566,34.265-11.993,47.967a36.831,36.831,0,0,1-35.733,27.9Z" transform="translate(5722.109 -1179)" fill-rule="evenodd" fill="url(#linear-gradient-3)"/>
    </g>
    <path id="联合_2" data-name="联合 2" d="M1788.65,1299.99c-29.223-.527-56.59-14.283-81.367-40.905a201.858,201.858,0,0,1-26.961-36.059,227.379,227.379,0,0,1-62.888,39.3,293.817,293.817,0,0,1-113.813,22.905c-59.049,0-112.367-13.47-158.474-40.036q-3.77-2.172-7.459-4.431a303.536,303.536,0,0,1-102.58-103.142q-2.974-4.935-5.775-9.937A346.316,346.316,0,0,1,1186.8,993.541c-3.406-30.64-5.4-68.22-5.925-111.847q-.142-11.761-.142-24.1v-1.4c.032-59.166,2.069-109.361,6.056-149.209a346.8,346.8,0,0,1,47.39-142.634q.465-.781.935-1.56A304.166,304.166,0,0,1,1345.15,455.215c46.107-26.565,99.425-40.035,158.474-40.035q4.963,0,9.985.2c30.933,1.246,63.5,8.244,96.968,20.848a276.807,276.807,0,0,1,48.553,23.581q3.536,2.2,6.926,4.478a86.273,86.273,0,0,1,9.43-11.151c16.142-16.133,36.966-24.661,60.222-24.661s44.081,8.528,60.222,24.661,24.674,36.948,24.674,60.192v505.308c0,63.749,2.033,91.724,3.834,103.99q.116.787.23,1.489c1.725,10.628,4.494,13.34,4.522,13.364a82.207,82.207,0,0,1,35.591,32.994,88.021,88.021,0,0,1,12,44.672,84.1,84.1,0,0,1-8.945,37.956,81.992,81.992,0,0,1-32.734,34.908,88.129,88.129,0,0,1-44.7,11.99Q1789.53,1300,1788.65,1299.99Zm-285.03-171.17c44.265,0,77.741-12.931,102.34-39.535,25.991-28.107,40.714-61.39,45.011-101.752A1331.109,1331.109,0,0,0,1658.2,850.2q0-7.555-.087-15.114c-.473-41.03-2.87-82.069-7.142-122.212-4.267-39.231-19.659-72.473-47.051-101.562-26.106-27.725-58.915-41.2-100.3-41.2s-74.193,13.478-100.3,41.2c-27.392,29.088-42.783,62.33-47.056,101.628-3.814,34.315-5.745,77.989-5.745,129.873,0,57.873,1.941,106.622,5.771,144.9,4.277,40.181,19,73.464,44.991,101.571,23.831,25.772,55.992,38.713,98.222,39.5Q1501.55,1128.82,1503.62,1128.82Zm2751.86,156.342c-88.136-1.5-160.807-27.848-216.1-78.373-57.3-52.367-88.537-125.155-92.83-216.347q-.347-6.589-.667-13.022c-2.52-50.6-3.8-93.888-3.8-128.69h0c0-33.453,1.123-73.243,3.341-118.525q.527-10.757,1.136-21.924c4.281-90.92,35.476-163.924,92.71-216.771,56.974-52.606,132.415-79.281,224.228-79.281S4430.76,438.9,4487.73,491.5q2.347,2.168,4.636,4.38c54.284,52.473,83.911,123.963,88.084,212.6q.56,11.745,1.013,22.033c1.327,30.121,1.975,51.013,1.975,63.534l1.46,40.346c.018,24.27-8.513,45.084-24.654,61.218s-36.966,24.661-60.224,24.661H4115.19c.443,19.561,1.3,42.1,2.565,67.375,1.7,39.85,15.165,72.777,41.178,100.874,25.1,27.108,59.3,40.286,104.569,40.286h1.5c41.968-.15,76.235-6.612,101.871-19.214,25.487-12.528,49.419-34.724,71.126-65.965,17.287-22.072,39.409-33.019,64.983-33.019a80.652,80.652,0,0,1,45.5,13.687c22.474,13.44,34.963,36.257,34.963,65.256,0,16.9-4.316,31.013-12.834,41.989-36.835,55.96-76.836,95.754-118.967,118.363q-1.776.953-3.558,1.866c-43.939,22.507-104.314,33.449-184.577,33.449q-4.039.011-8.029-.059Zm156.2-521.286c-.469-15.407-1.278-32.908-2.422-52.346-1.711-40.1-15.177-73.03-41.19-101.127q-1.4-1.509-2.832-2.96c-24.82-25.108-58.152-37.326-101.738-37.327-45.266,0-79.471,13.179-104.569,40.287q-.915.988-1.809,1.984c-24.83,27.661-37.71,59.97-39.359,98.679q-1.67,28.436-2.39,50.989-.029.916-.057,1.822ZM3024.36,1284.52c-49.342-3.119-94.757-16.577-135.277-40.123-46.4-26.964-83.642-63.387-110.686-108.258q-.783-1.3-1.553-2.6a346.591,346.591,0,0,1-46.76-141.475q-.165-1.483-.325-2.987c-3.8-35.671-5.742-80.442-5.742-132.963,0-59.8,2.039-110,6.063-149.2a346.769,346.769,0,0,1,48.32-144.125c27.044-44.871,64.284-81.294,110.687-108.259,46.619-27.091,99.72-40.827,157.826-40.827,34.548,0,70.884,8.575,108,25.487a267,267,0,0,1,39.189,21.878V92.241c0-23.245,8.532-44.059,24.674-60.192S3255.74,7.387,3279,7.387q4.633,0,9.132.449a84.12,84.12,0,0,1,75.339,75.542q.423,4.366.424,8.863V1184.12c0,22.044-8.639,42.707-24.984,59.755q-.293.306-.588.608c-16.567,16.992-37.062,25.968-59.323,25.968-23.257,0-44.082-8.528-60.222-24.661l-.235-.235a85,85,0,0,1-12.579-16.089,296.48,296.48,0,0,1-45.089,26.945q-7.34,3.617-14.658,6.784c-32.586,14.1-64.746,21.493-95.845,22q-1.73.028-3.456.028Q3035.51,1285.23,3024.36,1284.52Zm22.551-155.7q1.812,0,3.6-.03c41.549-.684,73.378-13.308,97.144-38.52q.73-.775,1.45-1.565,2.223-2.44,4.337-4.929l.133-.156.012-.014c22.428-26.474,35.614-57.1,40.182-93.31q.266-2.107.493-4.24,1.011-9.705,1.883-19.42c3.549-39.569,5.347-79.156,5.347-117.907a1288.812,1288.812,0,0,0-7.23-135.849q-.7-6.436-1.8-12.66c-5.977-33.794-20.855-63-45.25-88.9-26.106-27.725-58.914-41.2-100.3-41.2s-74.192,13.478-100.3,41.2c-27.392,29.088-42.784,62.33-47.058,101.628q-1.019,14.33-1.861,27.957c-2.562,41.451-3.884,77.823-3.884,107.827,0,31.1,1.348,68.361,4.012,111.047q.829,13.289,1.829,27.272.2,1.849.426,3.681c4.724,37.862,19.376,70.24,44.641,97.975,24.541,26.941,57.887,40.064,101.936,40.115ZM2281.18,1285.23c-58.107,0-111.208-13.737-157.826-40.828-46.4-26.964-83.644-63.387-110.687-108.258a346.743,346.743,0,0,1-48.313-144.077c-4.018-36.143-6.066-81.95-6.066-135.95,0-59.8,2.039-110,6.063-149.2a346.771,346.771,0,0,1,48.316-144.122c27.043-44.871,64.284-81.294,110.688-108.259,46.617-27.091,99.718-40.827,157.825-40.827,34.547,0,70.884,8.575,108,25.487a267.035,267.035,0,0,1,39.188,21.877V92.241A84.081,84.081,0,0,1,2440.7,47.6a85.225,85.225,0,0,1,12.34-15.548,83.66,83.66,0,0,1,25.433-17.526,85.05,85.05,0,0,1,31.8-7.088l.654-.018q1.161-.029,2.33-.029c22.621,0,42.94,8.068,58.888,23.355q.672.645,1.334,1.306c16.142,16.133,24.674,36.949,24.674,60.192V1184.12c0,22.044-8.64,42.707-24.984,59.755q-.293.306-.588.608-.887.91-1.789,1.788l-.381.369-.03.029q-.567.546-1.139,1.08c-15.948,14.874-35.2,22.7-55.985,22.7-22.531,0-42.777-8-58.7-23.171q-.771-.734-1.527-1.49a85.084,85.084,0,0,1-12.812-16.324,296.469,296.469,0,0,1-45.09,26.945c-37.592,18.523-74.749,28.2-110.5,28.787q-1.73.028-3.456.028Zm0-156.41q1.812,0,3.6-.03c42.4-.7,74.679-13.831,98.6-40.086,25.163-27.624,39.8-59.853,44.662-98.409q.266-2.107.493-4.24,1.011-9.705,1.883-19.42c3.55-39.569,5.348-79.156,5.348-117.907,0-38.381-1.764-77.222-5.251-115.74q-.911-10.071-1.98-20.109c-4.217-38.772-19.3-71.7-46.092-100.538q-.476-.513-.958-1.024-1.3-1.381-2.623-2.715c-25.672-25.891-57.666-38.487-97.678-38.488-41.385,0-74.192,13.478-100.3,41.2-27.392,29.088-42.784,62.33-47.056,101.627q-.687,9.658-1.293,19c-2.934,45.183-4.452,84.64-4.452,116.787,0,31.1,1.348,68.361,4.011,111.047q.829,13.289,1.828,27.272c4.217,39.449,18.987,73.026,45.067,101.657,23.916,26.255,56.2,39.388,98.595,40.086q1.786.03,3.6.03ZM813.28,1276.365a84.3,84.3,0,0,1-52.146-17.693q-.462-.352-.918-.708a80.919,80.919,0,0,1-29.618-46.7L563.355,480.554l-168.512,730.7a80.908,80.908,0,0,1-29.256,46.421q-.635.5-1.281.994c-15.418,11.74-33.46,17.693-53.624,17.693-19.5,0-37.268-6.377-52.811-18.955q-.722-.584-1.428-1.179A84.219,84.219,0,0,1,228,1209.78L1.749,170.745A88.39,88.39,0,0,1,0,153.36a85.762,85.762,0,0,1,13.639-46.126q.721-1.144,1.47-2.257C27.393,86.721,45.34,74.763,67.24,70.255c5.572-1.558,12.073-2.29,20.226-2.29,19.5,0,37.267,6.377,52.81,18.954a78.451,78.451,0,0,1,28.8,49.714l147.375,708.88L479.287,133.127q.792-3.429,1.821-6.711a80.585,80.585,0,0,1,28.728-40.758,85.116,85.116,0,0,1,25.928-13.539q.5-.159,1-.311h.007a88.28,88.28,0,0,1,16.48-3.313q.637-.067,1.275-.125c.318-.029.639-.057.958-.083l.554-.043q3.659-.275,7.42-.276A84.3,84.3,0,0,1,615.6,85.661a80.979,80.979,0,0,1,30.536,47.408L808.994,845.5,956.639,135.16C959.41,116.9,969.366,99.7,985.167,86.92c15.543-12.577,33.311-18.954,52.81-18.954,8.155,0,14.656.732,20.228,2.29,22.791,4.692,41.3,17.452,53.6,36.979a84.808,84.808,0,0,1,11.99,63.035L897.522,1209.43a84.489,84.489,0,0,1-28.345,46.647q-.792.671-1.6,1.328c-15.543,12.577-33.312,18.954-52.811,18.954Zm2931.36-11.82h0a225.369,225.369,0,0,1-85.5-16.9,223.092,223.092,0,0,1-73.76-49.128q-1.251-1.251-2.48-2.517a222.711,222.711,0,0,1-46.671-71.2q-2.7-6.6-4.966-13.3a224.069,224.069,0,0,1-11.947-72.165V84.853c0-23.246,8.532-44.06,24.675-60.194S3580.95,0,3604.21,0a85.992,85.992,0,0,1,60.5,24.215,81.987,81.987,0,0,1,25.865,59.814v955.295c0,14.032,5,26.726,15.287,38.754,12.035,10.278,24.734,15.278,38.774,15.278a86.745,86.745,0,0,1,86.374,86.331,82.042,82.042,0,0,1-25.868,60.639,85.991,85.991,0,0,1-60.5,24.216Z" transform="translate(7445 2589)" fill="#fff"/>
  </g>
</svg>
