<svg xmlns="http://www.w3.org/2000/svg" xmlns:xlink="http://www.w3.org/1999/xlink" width="3494.914" height="737.091" viewBox="0 0 3494.914 737.091">
  <defs>
    <linearGradient id="linear-gradient" x1="0.5" x2="0.5" y2="1" gradientUnits="objectBoundingBox">
      <stop offset="0" stop-color="#6a40ff"/>
      <stop offset="1" stop-color="#de8cff"/>
    </linearGradient>
    <linearGradient id="linear-gradient-2" x1="0.3" y1="0.48" x2="0.936" y2="0.634" gradientUnits="objectBoundingBox">
      <stop offset="0" stop-color="#53f0ec"/>
      <stop offset="1" stop-color="#795bf6"/>
    </linearGradient>
    <linearGradient id="linear-gradient-3" x1="0.5" x2="0.5" y2="1" gradientUnits="objectBoundingBox">
      <stop offset="0" stop-color="#ffa568"/>
      <stop offset="1" stop-color="#f17746"/>
    </linearGradient>
  </defs>
  <g id="组_66" data-name="组 66" transform="translate(-3749 3339.045)">
    <path id="路径_14" data-name="路径 14" d="M565.91-15.525Q559.417,21,541.153,35.207T496.1,49.412q-18.669,0-35.715-12.176T434.413-4.972L333.76-361.315,231.484,3.145q-13.8,47.891-60.879,46.268a85.263,85.263,0,0,1-23.54-3.247,52.448,52.448,0,0,1-21.1-12.176q-9.741-8.929-17.452-24.757T96.739-31.759L26.12-483.884q-3.247-18.67,7.305-33.686t38.962-15.017q17.858,0,31.251,6.494t17.452,35.715l49.515,333.615q4.059,27.6,8.929,26.787T190.9-156.763L276.94-488.754q5.682-21.1,21.1-32.469a56.159,56.159,0,0,1,34.092-11.364q21.1,0,34.5,9.335t21.51,37.745q23.54,83.607,46.674,163.966t46.674,163.966q7.305,25.163,10.958,27.6t7.711-27.6l47.891-328.744q4.059-27.6,15.828-36.933t33.686-9.335q27.6,0,37.745,13.393t6.9,31.251ZM796.437-171.374q.812,73.866,27.192,106.335t73.46,32.469q47.079,0,69-36.933t21.1-101.058q-.812-65.749-23.134-104.305t-68.59-40.18q-46.268-.812-73.054,34.5T796.437-171.374Zm188.318,152.6q-18.669,41.4-46.268,56.82T871.115,53.471q-39.774,0-72.648-15.017A155.578,155.578,0,0,1,742.052-5.378Q718.513-34.194,705.525-76t-12.987-95.376q0-65.749,15.017-110.393t39.774-72.243q24.757-27.6,57.226-39.368a196.184,196.184,0,0,1,67.372-11.77q38.962,0,69,21.51t45.456,62.908v-34.092q0-12.987,12.582-27.6t38.556-14.611q25.975.812,38.556,15.017t12.582,27.192V6.392q0,12.987-10.146,27.192T1036.7,48.6q-16.234,0-25.975-4.059A45.072,45.072,0,0,1,994.9,33.99a33.209,33.209,0,0,1-8.117-13.8,51.633,51.633,0,0,1-2.029-13.8Zm274.359-152.6q.812,73.054,27.193,105.929t72.648,32.874q46.268,0,67.778-37.339t21.51-100.653q0-65.749-23.54-104.305t-67.372-40.18q-44.644-.812-71.837,34.9T1259.115-171.374Zm187.506,152.6a96.91,96.91,0,0,1-17.046,26.787,130.974,130.974,0,0,1-26.787,23.134,138,138,0,0,1-34.9,16.234,138.02,138.02,0,0,1-41.4,6.088q-37.339,0-68.59-15.017T1203.512-5.378Q1180.378-34.194,1167.391-76T1154.4-171.374q0-65.749,16.234-110.393t41.8-72.243q25.569-27.6,57.632-39.368a183.916,183.916,0,0,1,63.719-11.77q34.9,0,67.372,23.134t47.079,61.284V-525.281q0-12.987,12.581-27.6t38.557-14.611q25.975.812,38.556,15.017t12.582,27.192V7.2a51.63,51.63,0,0,1-2.029,13.8,33.207,33.207,0,0,1-8.117,13.8,44.475,44.475,0,0,1-16.234,10.552q-10.147,4.059-25.569,4.059-16.234,0-25.975-4.059A45.07,45.07,0,0,1,1456.767,34.8,33.208,33.208,0,0,1,1448.65,21a51.63,51.63,0,0,1-2.029-13.8Zm287.347-152.6q.812,73.054,27.193,105.929t72.648,32.874q46.268,0,67.778-37.339t21.51-100.653q0-65.749-23.54-104.305t-67.372-40.18q-44.644-.812-71.837,34.9T1733.968-171.374Zm187.506,152.6a96.914,96.914,0,0,1-17.046,26.787,130.97,130.97,0,0,1-26.787,23.134,138,138,0,0,1-34.9,16.234,138.02,138.02,0,0,1-41.4,6.088q-37.339,0-68.59-15.017T1678.365-5.378Q1655.232-34.194,1642.244-76t-12.988-95.376q0-65.749,16.234-110.393t41.8-72.243q25.569-27.6,57.632-39.368a183.917,183.917,0,0,1,63.72-11.77q34.9,0,67.372,23.134t47.079,61.284V-525.281q0-12.987,12.582-27.6t38.557-14.611q25.975.812,38.557,15.017t12.581,27.192V7.2a51.635,51.635,0,0,1-2.029,13.8,33.209,33.209,0,0,1-8.117,13.8,44.477,44.477,0,0,1-16.234,10.552q-10.147,4.059-25.569,4.059-16.234,0-25.975-4.059A45.073,45.073,0,0,1,1931.62,34.8,33.209,33.209,0,0,1,1923.5,21a51.63,51.63,0,0,1-2.029-13.8Zm207.8-511.38q0-18.669,11.77-28.816t39.368-10.146q27.6,0,39.368,10.552t11.77,29.222V15.32q0,14.611-13.8,24.351t-37.339,9.741q-23.54,0-37.339-9.741t-13.8-24.351Zm453.748,319a234.262,234.262,0,0,0-3.247-39.368q-3.247-19.075-11.77-33.28a65.287,65.287,0,0,0-22.728-22.728q-14.205-8.523-36.933-8.523-29.221,0-47.079,10.146t-27.6,25.975a96.824,96.824,0,0,0-12.988,34.092,193.487,193.487,0,0,0-3.247,33.686ZM2510.779,57.53q-49.515,0-86.042-16.234T2363.858-4.567q-24.352-29.628-36.527-71.837t-12.176-94.159q0-50.326,12.176-93.347t36.933-74.272a175.351,175.351,0,0,1,61.284-49.109q36.527-17.858,85.23-17.858,46.267,0,78.736,16.234t53.167,43.833q20.7,27.6,30.439,64.125a298.133,298.133,0,0,1,9.741,77.113q0,34.092-8.929,51.95t-33.28,17.858H2417.431a164.306,164.306,0,0,0,4.058,36.527,84.865,84.865,0,0,0,15.017,32.469q10.958,14.611,29.222,23.54t46.674,8.929q36.527,0,57.226-10.958T2602.5-68.286q8.929-10.552,17.858-12.987a31.753,31.753,0,0,1,16.64-.406,45.569,45.569,0,0,1,13.8,6.088q6.088,4.059,10.147,6.494,15.422,12.176,12.176,33.686T2649.987,6.8q-19.887,20.7-55.2,35.715T2510.779,57.53Z" transform="translate(4561.052 -2714.708)" fill="#fff"/>
    <g id="组_56" data-name="组 56">
      <path id="路径_13" data-name="路径 13" d="M492.283,121.979c270.9,0,366.923,97.912,366.923,368.808S763.178,859.07,492.283,859.07,121.8,761.682,121.8,490.787,221.387,121.979,492.283,121.979Z" transform="translate(3627.203 -3461.024)" fill="#fff"/>
      <g id="组_26" data-name="组 26" transform="translate(1312.108 -712.925)">
        <path id="右" d="M993.47,1553.208s85.1-319.1,94.282-353.56A24.991,24.991,0,0,1,1111.9,1181.1h89.476a12.491,12.491,0,0,1,12.069,15.713c-16.041,60.165-73.53,275.741-90.808,340.534a24.982,24.982,0,0,1-24.143,18.548h-97.276a12.468,12.468,0,0,1-7.755-2.7Z" transform="translate(1837.832 -3605.123)" fill="url(#linear-gradient)"/>
        <path id="中" d="M666,1547.74S785.532,1229,801.8,1185.618a12.493,12.493,0,0,1,23.4,0c16.266,43.379,45.2,120.526,58.355,155.612a6.244,6.244,0,0,0,11.847-.46l-56.2,210.747a12.471,12.471,0,0,1-3.857-5.167c-4.015-10.038-11.045-27.613-16.045-40.11a6.245,6.245,0,0,0-11.6,0c-5,12.5-12.029,30.072-16.045,40.11a12.492,12.492,0,0,1-11.6,7.854H682.772A24.961,24.961,0,0,1,666,1547.74Z" transform="translate(1992.104 -3603.431)" fill="url(#linear-gradient-2)"/>
        <path id="左" d="M578.163,1549.45a24.936,24.936,0,0,1-7.37-12.08l-90.811-340.433a12.493,12.493,0,0,1,12.059-15.713c22.994-.021,64.958-.064,89.47-.085a24.985,24.985,0,0,1,24.167,18.548c9.191,34.467,28.794,107.981,38.045,142.665a6.245,6.245,0,0,0,11.838.7Z" transform="translate(2079.94 -3605.142)" fill="url(#linear-gradient-3)"/>
      </g>
    </g>
  </g>
</svg>
