<svg xmlns="http://www.w3.org/2000/svg" xmlns:xlink="http://www.w3.org/1999/xlink" fill="none" version="1.1" width="1300" height="1300" viewBox="0 0 1300 1300"><defs><linearGradient x1="0" y1="0" x2="1" y2="1" id="master_svg0_7_652"><stop offset="15.142822265625%" stop-color="#6B50F3" stop-opacity="1"/><stop offset="50.68492889404297%" stop-color="#3662EC" stop-opacity="1"/><stop offset="86.57139539718628%" stop-color="#07B9B9" stop-opacity="1"/></linearGradient><filter id="master_svg1_33_009" filterUnits="objectBoundingBox" color-interpolation-filters="sRGB" x="-140" y="-140" width="1000.0025634765625" height="789.3400268554688"><feFlood flood-opacity="0" result="BackgroundImageFix"/><feColorMatrix in="SourceAlpha" type="matrix" values="0 0 0 0 0 0 0 0 0 0 0 0 0 0 0 0 0 0 127 0"/><feOffset dy="0" dx="0"/><feGaussianBlur stdDeviation="10"/><feColorMatrix type="matrix" values="0 0 0 0 0 0 0 0 0 0.529411792755127 0 0 0 0 0.6352941393852234 0 0 0 0.5 0"/><feBlend mode="normal" in2="BackgroundImageFix" result="effect1_dropShadow"/><feColorMatrix in="SourceAlpha" type="matrix" values="0 0 0 0 0 0 0 0 0 0 0 0 0 0 0 0 0 0 127 0"/><feOffset dy="0" dx="0"/><feGaussianBlur stdDeviation="25"/><feColorMatrix type="matrix" values="0 0 0 0 0 0 0 0 0 0.10196078568696976 0 0 0 0 0 0 0 0 0.30000001192092896 0"/><feBlend mode="normal" in2="effect1_dropShadow" result="effect2_dropShadow"/><feBlend mode="normal" in="SourceGraphic" in2="effect2_dropShadow" result="shape"/><feColorMatrix in="SourceAlpha" type="matrix" result="hardAlpha" values="0 0 0 0 0 0 0 0 0 0 0 0 0 0 0 0 0 0 127 0"/><feOffset dy="0" dx="0"/><feGaussianBlur stdDeviation="15"/><feComposite in2="hardAlpha" operator="arithmetic" k2="-1" k3="1"/><feColorMatrix type="matrix" values="0 0 0 0 0.8196078538894653 0 0 0 0 0.929411768913269 0 0 0 0 0.9529411792755127 0 0 0 0.3499999940395355 0"/><feBlend mode="normal" in2="shape" result="effect3_innerShadow"/><feColorMatrix in="SourceAlpha" type="matrix" result="hardAlpha" values="0 0 0 0 0 0 0 0 0 0 0 0 0 0 0 0 0 0 127 0"/><feOffset dy="-39" dx="0"/><feGaussianBlur stdDeviation="10"/><feComposite in2="hardAlpha" operator="arithmetic" k2="-1" k3="1"/><feColorMatrix type="matrix" values="0 0 0 0 0.5882353186607361 0 0 0 0 0.9529411792755127 0 0 0 0 0.9407843351364136 0 0 0 0.8999999761581421 0"/><feBlend mode="normal" in2="effect3_innerShadow" result="effect4_innerShadow"/><feColorMatrix in="SourceAlpha" type="matrix" result="hardAlpha" values="0 0 0 0 0 0 0 0 0 0 0 0 0 0 0 0 0 0 127 0"/><feOffset dy="-30" dx="0"/><feGaussianBlur stdDeviation="29.5"/><feComposite in2="hardAlpha" operator="arithmetic" k2="-1" k3="1"/><feColorMatrix type="matrix" values="0 0 0 0 0.6392157077789307 0 0 0 0 0.6392157077789307 0 0 0 0 0.6392157077789307 0 0 0 0.7200000286102295 0"/><feBlend mode="normal" in2="effect4_innerShadow" result="effect5_innerShadow"/><feColorMatrix in="SourceAlpha" type="matrix" result="hardAlpha" values="0 0 0 0 0 0 0 0 0 0 0 0 0 0 0 0 0 0 127 0"/><feOffset dy="-10" dx="0"/><feGaussianBlur stdDeviation="10"/><feComposite in2="hardAlpha" operator="arithmetic" k2="-1" k3="1"/><feColorMatrix type="matrix" values="0 0 0 0 0.7584313750267029 0 0 0 0 0.5882353186607361 0 0 0 0 0.9529411792755127 0 0 0 0.8999999761581421 0"/><feBlend mode="normal" in2="effect5_innerShadow" result="effect6_innerShadow"/></filter></defs><g><g><path d="M0,650C0,1128.32,171.68,1300,650,1300C1128.32,1300,1300,1128.32,1300,650C1300,171.68,1128.32,0,650,0C171.68,0,0,171.68,0,650Z" fill-rule="evenodd" fill="url(#master_svg0_7_652)" fill-opacity="1"/></g><g filter="url(#master_svg1_33_009)"><g><path d="M752.2583274169922,986.67056640625C785.9383274169921,986.67056640625,847.7582274169922,986.67056640625,884.0782274169921,986.67056640625C900.9782274169922,986.67056640625,915.7082274169923,975.17056640625,919.8082274169922,958.77056640625C945.0482274169922,857.81056640625,1031.3582274169921,512.58056640625,1054.4482274169923,420.21056640625C1055.8282274169921,414.72056640625,1054.5882274169921,408.89056640625,1051.0982274169921,404.41056640625C1047.6082274169921,399.95056640625,1042.2582274169922,397.33056640625,1036.5782274169921,397.33056640625L904.7582274169922,397.33056640625C887.8582274169921,397.33056640625,873.1282274169922,408.83056640625,869.0282274169922,425.23056640625L734.3883344169922,963.79056640625C733.0083344169922,969.28056640625,734.2483344169922,975.11056640625,737.7383374169922,979.59056640625C741.2283374169922,984.05056640625,746.5883274169922,986.67056640625,752.2583274169922,986.67056640625Z" fill-rule="evenodd" fill="#FFFFFF" fill-opacity="1"/></g><g><path d="M406.09984851074216,950.93056640625C425.4098485107422,873.70056640625,470.4498485107422,693.55056640625,484.7798485107422,636.20056640625C487.7098485107422,624.47056640625,487.7098485107422,612.20056640625,484.7798485107422,600.47056640625L440.96984851074217,425.23056640625C436.8698485107422,408.83056640625,422.1398485107422,397.33056640625,405.23984851074215,397.33056640625L273.4199485107422,397.33056640625C267.7499485107422,397.33056640625,262.3899585107422,399.95056640625,258.8999585107422,404.41056640625C255.40995551074218,408.89056640625,254.1699555107422,414.72056640625,255.5499555107422,420.21056640625L388.22984851074216,950.93056640625C389.2598485107422,955.04056640625,392.9398485107422,957.91056640625,397.1598485107422,957.91056640625C401.3898485107422,957.91056640625,405.0698485107422,955.04056640625,406.09984851074216,950.93056640625Z" fill-rule="evenodd" fill="#FFFFFF" fill-opacity="1"/></g><g><path d="M625.1393859863281,958.77056640625C628.5693859863281,945.07056640625,632.8693859863281,927.86056640625,637.1293859863281,910.80056640625C639.1793859863282,902.60056640625,646.5493859863282,896.85056640625,654.9993859863281,896.85056640625C663.4493859863281,896.85056640625,670.8193859863281,902.60056640625,672.8693859863281,910.80056640625C676.3493859863281,924.73056640625,679.8593859863281,938.79056640625,682.8993859863281,950.93056640625C683.9293859863282,955.03056640625,687.6093859863281,957.91056640625,691.8393859863281,957.91056640625C696.0593859863282,957.91056640625,699.7393859863281,955.03056640625,700.7693859863282,950.93056640625C720.0793859863281,873.70056640625,765.1193859863281,693.55056640625,779.4493859863281,636.20056640625C782.3793859863281,624.47056640625,782.3793859863281,612.20056640625,779.4493859863281,600.47056640625C769.8493859863281,562.04056640625,747.1593859863281,471.31056640625,735.6393859863281,425.23056640625C731.5393859863282,408.83056640625,716.8093859863282,397.33056640625,699.9093859863281,397.33056640625L610.0893859863281,397.33056640625C593.1893859863281,397.33056640625,578.4593859863281,408.83056640625,574.3593859863281,425.23056640625C550.8793859863281,519.14056640625,474.5692859863281,824.39056640625,445.4392859863281,940.90056640625C442.6892859863281,951.91056640625,445.15928998632813,963.57056640625,452.1392859863281,972.51056640625C459.1192859863281,981.45056640625,469.8292859863281,986.67056640625,481.16928598632813,986.67056640625L589.4093859863281,986.67056640625C606.3093859863282,986.67056640625,621.0393859863282,975.17056640625,625.1393859863281,958.77056640625Z" fill-rule="evenodd" fill="#FFFFFF" fill-opacity="1"/></g></g></g></svg>