<svg xmlns="http://www.w3.org/2000/svg" xmlns:xlink="http://www.w3.org/1999/xlink" fill="none" version="1.1" width="1300" height="1300" viewBox="0 0 1300 1300"><g style="mix-blend-mode:passthrough"><g><g style="mix-blend-mode:passthrough"><g><g style="mix-blend-mode:passthrough"><path d="M0,650C0,1128.32,171.68,1300,650,1300C1128.32,1300,1300,1128.32,1300,650C1300,171.68,1128.32,0,650,0C171.68,0,0,171.68,0,650Z" fill-rule="evenodd" fill="#6B50F3" fill-opacity="1"/></g><g style="mix-blend-mode:passthrough"><g><g style="mix-blend-mode:passthrough"><path d="M752.25852578125,986.67056640625C785.93852578125,986.67056640625,847.75842578125,986.67056640625,884.07842578125,986.67056640625C900.97842578125,986.67056640625,915.7084257812501,975.17056640625,919.80842578125,958.77056640625C945.04842578125,857.81056640625,1031.35842578125,512.58056640625,1054.44842578125,420.21056640625C1055.82842578125,414.72056640625,1054.58842578125,408.89056640625,1051.09842578125,404.41056640625C1047.60842578125,399.95056640625,1042.25842578125,397.33056640625,1036.57842578125,397.33056640625L904.75842578125,397.33056640625C887.8584257812499,397.33056640625,873.12842578125,408.83056640625,869.02842578125,425.23056640625L734.38853278125,963.79056640625C733.00853278125,969.28056640625,734.24853278125,975.11056640625,737.73853578125,979.59056640625C741.22853578125,984.05056640625,746.58852578125,986.67056640625,752.25852578125,986.67056640625Z" fill-rule="evenodd" fill="#FFFFFF" fill-opacity="1"/></g><g style="mix-blend-mode:passthrough"><path d="M406.100046875,950.93056640625C425.41004687500003,873.70056640625,470.450046875,693.55056640625,484.78004687500004,636.20056640625C487.710046875,624.47056640625,487.710046875,612.20056640625,484.78004687500004,600.47056640625L440.970046875,425.23056640625C436.870046875,408.83056640625,422.140046875,397.33056640625,405.24004687499996,397.33056640625L273.420146875,397.33056640625C267.750146875,397.33056640625,262.390156875,399.95056640625,258.900156875,404.41056640625C255.410153875,408.89056640625,254.170153875,414.72056640625,255.550153875,420.21056640625L388.23004687499997,950.93056640625C389.260046875,955.04056640625,392.940046875,957.91056640625,397.16004687500003,957.91056640625C401.390046875,957.91056640625,405.070046875,955.04056640625,406.100046875,950.93056640625Z" fill-rule="evenodd" fill="#FFFFFF" fill-opacity="1"/></g><g style="mix-blend-mode:passthrough"><path d="M625.1395843505859,958.77056640625C628.569584350586,945.07056640625,632.8695843505859,927.86056640625,637.1295843505859,910.80056640625C639.179584350586,902.60056640625,646.549584350586,896.85056640625,654.9995843505859,896.85056640625C663.449584350586,896.85056640625,670.819584350586,902.60056640625,672.8695843505859,910.80056640625C676.3495843505859,924.73056640625,679.8595843505859,938.79056640625,682.8995843505859,950.93056640625C683.929584350586,955.03056640625,687.6095843505859,957.91056640625,691.8395843505859,957.91056640625C696.059584350586,957.91056640625,699.7395843505859,955.03056640625,700.769584350586,950.93056640625C720.079584350586,873.70056640625,765.1195843505859,693.55056640625,779.449584350586,636.20056640625C782.3795843505859,624.47056640625,782.3795843505859,612.20056640625,779.449584350586,600.47056640625C769.8495843505859,562.04056640625,747.1595843505859,471.31056640625,735.6395843505859,425.23056640625C731.539584350586,408.83056640625,716.809584350586,397.33056640625,699.9095843505859,397.33056640625L610.0895843505859,397.33056640625C593.189584350586,397.33056640625,578.4595843505859,408.83056640625,574.3595843505859,425.23056640625C550.8795843505859,519.14056640625,474.5694843505859,824.39056640625,445.43948435058593,940.90056640625C442.68948435058593,951.91056640625,445.15948835058595,963.57056640625,452.1394843505859,972.51056640625C459.11948435058594,981.45056640625,469.8294843505859,986.67056640625,481.16948435058595,986.67056640625L589.4095843505859,986.67056640625C606.309584350586,986.67056640625,621.039584350586,975.17056640625,625.1395843505859,958.77056640625Z" fill-rule="evenodd" fill="#FFFFFF" fill-opacity="1"/></g></g></g></g></g><g style="mix-blend-mode:passthrough"><g><g style="mix-blend-mode:passthrough"><rect x="371" y="885" width="929" height="415" rx="57" fill="#FCDE7D" fill-opacity="1"/></g><g style="mix-blend-mode:passthrough"><path d="M463,1200.25L463,997.75L535.25,997.75Q567.75,997.75,591,1010Q614.25,1022.25,626.5,1045.125Q638.75,1068,638.75,1099Q638.75,1130,626,1152.875Q613.25,1175.75,589,1188Q564.75,1200.25,531,1200.25L463,1200.25ZM531.25,1156.75Q559.75,1156.75,575.5,1141.375Q591.25,1126,591.25,1099Q591.25,1072,576.125,1056.625Q561,1041.25,533.25,1041.25L509.5,1041.25L509.5,1156.75L531.25,1156.75ZM753,1203.75Q724.5,1203.75,703.375,1191Q682.25,1178.25,670.875,1154.625Q659.5,1131,659.5,1099Q659.5,1067,670.875,1043.375Q682.25,1019.75,703.375,1007Q724.5,994.25,753,994.25Q781.5,994.25,802.625,1007Q823.75,1019.75,835.125,1043.375Q846.5,1067,846.5,1099Q846.5,1131,835.125,1154.625Q823.75,1178.25,802.625,1191Q781.5,1203.75,753,1203.75ZM753,1160.25Q774.25,1160.25,786.625,1143.75Q799,1127.25,799,1099Q799,1070.75,786.625,1054.25Q774.25,1037.75,753,1037.75Q731.75,1037.75,719.375,1054.25Q707,1070.75,707,1099Q707,1127.25,719.375,1143.75Q731.75,1160.25,753,1160.25ZM1040,1153.5Q1028.75,1177.75,1008.625,1190.75Q988.5,1203.75,962,1203.75Q934.75,1203.75,913.25,1190.25Q891.75,1176.75,879.625,1152.625Q867.5,1128.5,867.5,1098Q867.5,1068,879.75,1044.375Q892,1020.75,914,1007.5Q936,994.25,964.5,994.25Q1015.75,994.25,1039.5,1044.5L998.25,1062.5Q993.25,1050.25,983.875,1044Q974.5,1037.75,961.75,1037.75Q948.25,1037.75,937.625,1045.5Q927,1053.25,921.125,1066.875Q915.25,1080.5,915.25,1098Q915.25,1116,921.125,1130.125Q927,1144.25,937.625,1152.25Q948.25,1160.25,961.75,1160.25Q985.5,1160.25,998.75,1135.5L1040,1153.5ZM1132.5,1203.75Q1104.25,1203.75,1083.375,1189.75Q1062.5,1175.75,1052.5,1152.75L1092.75,1134Q1097.75,1147.5,1108.375,1154.5Q1119,1161.5,1132.75,1161.5Q1147,1161.5,1155.375,1156.375Q1163.75,1151.25,1163.75,1143Q1163.75,1137.25,1160.75,1133.5Q1157.75,1129.75,1150,1126.375Q1142.25,1123,1127,1118.75Q1106.75,1113,1093.375,1107.25Q1080,1101.5,1069.75,1089.125Q1059.5,1076.75,1059.5,1056.5Q1059.5,1038.5,1069.625,1024.375Q1079.75,1010.25,1097.125,1002.25Q1114.5,994.25,1135.5,994.25Q1189,994.25,1212.25,1043.5L1172.25,1062.25Q1165.75,1048.5,1156.75,1042.5Q1147.75,1036.5,1135,1036.5Q1123,1036.5,1115,1041.625Q1107,1046.75,1107,1054.25Q1107,1060.25,1110.125,1064.125Q1113.25,1068,1120.875,1071.25Q1128.5,1074.5,1144,1078.75Q1163.75,1084,1177.25,1089.75Q1190.75,1095.5,1201,1107.75Q1211.25,1120,1211.25,1140.5Q1211.25,1159.5,1201.25,1173.875Q1191.25,1188.25,1173.375,1196Q1155.5,1203.75,1132.5,1203.75Z" fill="#3D3D3D" fill-opacity="1"/></g></g></g></g></g></svg>