<svg xmlns="http://www.w3.org/2000/svg" width="7259.5" height="2922.501" viewBox="0 0 7259.5 2922.501">
  <g id="组_33" data-name="组 33" transform="translate(1160 114.501)">
    <g id="矩形_1" data-name="矩形 1" transform="translate(-1160 -102)" fill="#6b50f3" stroke="#707070" stroke-width="1">
      <rect width="7259" height="2910" stroke="none"/>
      <rect x="0.5" y="0.5" width="7258" height="2909" fill="none"/>
    </g>
    <path id="交叉_1" data-name="交叉 1" d="M6159.743,5124.257l-10.052-29.194a18.53,18.53,0,0,1,11.476-23.556l45.8-15.771a18.793,18.793,0,0,1,14.256.652l33.745,16.493a17.864,17.864,0,0,0,14.353.941l38.273-13.177a17.883,17.883,0,0,0,10.735-9.582l16.435-33.776a18.828,18.828,0,0,1,10.839-9.289l225.265-77.563a18.531,18.531,0,0,1,23.542,11.5l49.015,142.347a18.528,18.528,0,0,1-11.365,23.858l-46.812,16.119Zm-892.386,0a25.229,25.229,0,0,1,11.813-8.5L5676,4979.12a25.359,25.359,0,0,1,32.194,15.7l44.568,129.436Zm-1640.263,0,52.782-108.218a25.356,25.356,0,0,0-11.663-33.867l-3.25-1.584c-.715-.348-1.433-.654-2.142-.928l-112.974-55.1a25.158,25.158,0,0,0-19.349-1.18c-.023.009-.045.016-.068.022a25.172,25.172,0,0,0-14.453,12.821l-1.584,3.252a25.327,25.327,0,0,0,11.661,33.867l92.3,45.02L3574,5109.316a25.244,25.244,0,0,0-2.262,14.94h-78.423l-72.7-211.126a25.356,25.356,0,0,1,15.7-32.192L3833.15,4744.3a25.353,25.353,0,0,1,32.192,15.7l125.425,364.255Zm229.653-120.437-123.154,42.4a25.357,25.357,0,0,0-15.7,32.194l1.178,3.419a25.353,25.353,0,0,0,32.192,15.7l123.154-42.406a25.354,25.354,0,0,0,15.7-32.192l-1.178-3.42a25.326,25.326,0,0,0-32.192-15.7ZM2821.572,5124.257l15.245-31.332a18.807,18.807,0,0,1,10.839-9.291l180.471-62.14a18.523,18.523,0,0,1,23.827,11.412l31.466,91.351Zm-1752.8,0v-23.821l5.056-10.392a18.821,18.821,0,0,1,10.839-9.288l225.265-77.566a18.532,18.532,0,0,1,23.542,11.5l37.727,109.568Zm639.742-66.217-130.75-379.729a25.353,25.353,0,0,1,15.7-32.192L1990.3,4509.481a25.351,25.351,0,0,1,32.192,15.7l130.752,379.726a25.352,25.352,0,0,1-15.7,32.189l-396.831,136.641a25.325,25.325,0,0,1-32.192-15.7Zm-20.87-369.481c-.022.009-.045.016-.068.023a25.17,25.17,0,0,0-14.453,12.818l-1.585,3.255a25.323,25.323,0,0,0,11.661,33.867l92.3,45.02-44.358,90.956a25.356,25.356,0,0,0,11.661,33.867l3.248,1.587a25.328,25.328,0,0,0,33.869-11.661l57.1-117.071a25.356,25.356,0,0,0-11.663-33.867l-3.25-1.584c-.715-.348-1.433-.657-2.142-.928L1707,4689.74a25.161,25.161,0,0,0-19.349-1.181ZM2013.9,4769l-123.154,42.4a25.357,25.357,0,0,0-15.7,32.194l1.178,3.419a25.355,25.355,0,0,0,32.192,15.7l123.154-42.406a25.355,25.355,0,0,0,15.7-32.192l-1.178-3.42A25.324,25.324,0,0,0,2013.9,4769Zm-945.121,57.788,116.5-40.114a18.526,18.526,0,0,1,23.827,11.412l49.026,142.331a18.844,18.844,0,0,1-11.652,23.958l-177.7,61.187ZM6236.2,5018.356l-33.253-16.012a17.27,17.27,0,0,0-14.067-1.043l-46.387,15.974a18.526,18.526,0,0,1-23.642-11.792l-49.017-142.352a18.531,18.531,0,0,1,11.471-23.565l45.805-15.773a18.836,18.836,0,0,1,14.256.65l33.745,16.5a17.878,17.878,0,0,0,14.355.943l38.273-13.177a17.885,17.885,0,0,0,10.733-9.582l16.435-33.777a18.805,18.805,0,0,1,10.839-9.288l180.471-62.143a18.529,18.529,0,0,1,23.827,11.415l49.024,142.331a18.839,18.839,0,0,1-11.649,23.956l-180.776,62.247a17.578,17.578,0,0,0-10.735,9.58l-16.342,33.092a17.884,17.884,0,0,1-10.451,9.489c-.095.034-.189.065-.287.1l-38.273,13.177c-.092.036-.189.068-.284.1a17.869,17.869,0,0,1-14.071-1.043Zm-1762.987-2.878-33.252-16.015a17.267,17.267,0,0,0-14.065-1.039L4379.5,5014.4a18.539,18.539,0,0,1-23.651-11.805l-49.015-142.349a18.531,18.531,0,0,1,11.478-23.556l45.8-15.771a18.793,18.793,0,0,1,14.256.652l33.745,16.493a17.865,17.865,0,0,0,14.354.941l38.273-13.18a17.875,17.875,0,0,0,10.735-9.58l16.435-33.776a18.821,18.821,0,0,1,10.839-9.289l225.265-77.563a18.529,18.529,0,0,1,23.542,11.5l49.015,142.347a18.528,18.528,0,0,1-11.365,23.858l-225.56,77.667a17.569,17.569,0,0,0-10.735,9.582l-16.344,33.088a17.887,17.887,0,0,1-10.448,9.491c-.1.032-.19.065-.287.095l-38.273,13.18c-.095.034-.19.068-.285.1a17.869,17.869,0,0,1-14.071-1.043Zm2496.245-30.2L6838.7,4605.556a25.354,25.354,0,0,1,15.7-32.192l396.831-136.641a25.356,25.356,0,0,1,32.192,15.7l130.751,379.729a25.353,25.353,0,0,1-15.7,32.189L7001.645,5000.98a25.325,25.325,0,0,1-32.192-15.7Zm-20.87-369.48c-.025.009-.045.016-.068.025a25.155,25.155,0,0,0-14.453,12.818l-1.587,3.253a25.329,25.329,0,0,0,11.663,33.867l92.3,45.02-44.358,90.958a25.35,25.35,0,0,0,11.66,33.865l3.249,1.586a25.325,25.325,0,0,0,33.867-11.66l57.1-117.071a25.356,25.356,0,0,0-11.663-33.867l-3.25-1.583c-.716-.35-1.431-.657-2.142-.93l-112.975-55.1a25.167,25.167,0,0,0-19.348-1.183Zm326.249,80.441-123.154,42.406a25.355,25.355,0,0,0-15.7,32.192l1.178,3.42a25.356,25.356,0,0,0,32.192,15.7l123.154-42.406a25.357,25.357,0,0,0,15.7-32.194l-1.178-3.419a25.326,25.326,0,0,0-32.192-15.7Zm-2881.487,87.294-33.253-16.013a17.272,17.272,0,0,0-14.067-1.042l-46.385,15.972a18.527,18.527,0,0,1-23.646-11.789l-49.017-142.35a18.531,18.531,0,0,1,11.473-23.567l45.805-15.773a18.825,18.825,0,0,1,14.256.65l33.745,16.5a17.874,17.874,0,0,0,14.354.943l38.275-13.177a17.892,17.892,0,0,0,10.733-9.582l16.435-33.777a18.818,18.818,0,0,1,10.839-9.291l180.471-62.14a18.526,18.526,0,0,1,23.827,11.415l49.023,142.329a18.842,18.842,0,0,1-11.649,23.958l-180.775,62.247a17.579,17.579,0,0,0-10.735,9.58l-16.344,33.09a17.878,17.878,0,0,1-10.448,9.491c-.095.034-.19.065-.287.1L4407.7,4784.48c-.095.036-.192.068-.285.1a17.876,17.876,0,0,1-14.071-1.045Zm-1762.987-2.878-33.253-16.015a17.265,17.265,0,0,0-14.064-1.041l-46.387,15.974A18.541,18.541,0,0,1,2513,4767.771l-49.013-142.347a18.53,18.53,0,0,1,11.478-23.556l45.8-15.771a18.793,18.793,0,0,1,14.256.652l33.745,16.493a17.865,17.865,0,0,0,14.353.941L2621.9,4591a17.871,17.871,0,0,0,10.735-9.58l16.435-33.776a18.82,18.82,0,0,1,10.839-9.289l225.265-77.563a18.529,18.529,0,0,1,23.542,11.5l49.015,142.349a18.53,18.53,0,0,1-11.365,23.858l-225.56,77.665a17.579,17.579,0,0,0-10.735,9.584l-16.344,33.088a17.894,17.894,0,0,1-10.449,9.491c-.095.032-.189.065-.287.095l-38.273,13.178c-.095.036-.19.067-.284.1a17.875,17.875,0,0,1-14.071-1.043Zm2496.245-30.2-130.75-379.726a25.355,25.355,0,0,1,15.7-32.194L5408.384,4201.9a25.353,25.353,0,0,1,32.192,15.7l130.752,379.729a25.354,25.354,0,0,1-15.7,32.189l-396.831,136.639a25.325,25.325,0,0,1-32.192-15.7Zm-20.872-369.48-.065.025a25.157,25.157,0,0,0-14.453,12.818l-1.586,3.252a25.33,25.33,0,0,0,11.663,33.867l92.3,45.02-44.358,90.958a25.351,25.351,0,0,0,11.661,33.865l3.248,1.586a25.325,25.325,0,0,0,33.867-11.66l57.1-117.071a25.356,25.356,0,0,0-11.663-33.867l-3.25-1.584c-.715-.348-1.433-.655-2.142-.928l-112.977-55.1a25.167,25.167,0,0,0-19.349-1.181Zm326.251,80.441-123.154,42.406a25.352,25.352,0,0,0-15.7,32.192l1.179,3.42a25.352,25.352,0,0,0,32.192,15.7l123.154-42.4a25.359,25.359,0,0,0,15.7-32.194l-1.178-3.419a25.326,25.326,0,0,0-32.192-15.7ZM7891.293,4707.9l-33.253-16.015a17.27,17.27,0,0,0-14.067-1.041l-46.385,15.972a18.532,18.532,0,0,1-23.651-11.807l-49.015-142.347a18.532,18.532,0,0,1,11.476-23.556l45.8-15.771a18.791,18.791,0,0,1,14.256.652l33.743,16.493a17.874,17.874,0,0,0,14.356.943l38.272-13.18a17.876,17.876,0,0,0,10.735-9.58L7910,4474.892a18.825,18.825,0,0,1,10.837-9.291l225.265-77.563a18.531,18.531,0,0,1,23.544,11.5l49.015,142.347a18.528,18.528,0,0,1-11.365,23.858l-225.561,77.667a17.575,17.575,0,0,0-10.735,9.582l-16.344,33.088a17.872,17.872,0,0,1-10.451,9.492c-.093.034-.19.065-.285.095l-38.273,13.18c-.092.036-.189.067-.284.1a17.886,17.886,0,0,1-14.071-1.043Zm-5340.8-159.186-33.253-16.013a17.272,17.272,0,0,0-14.067-1.042l-46.387,15.972a18.526,18.526,0,0,1-23.644-11.789l-49.017-142.352a18.534,18.534,0,0,1,11.473-23.567l45.805-15.771a18.814,18.814,0,0,1,14.256.652l33.745,16.493a17.873,17.873,0,0,0,14.354.943l38.275-13.18a17.882,17.882,0,0,0,10.733-9.582l16.435-33.776a18.816,18.816,0,0,1,10.837-9.289l180.473-62.14a18.526,18.526,0,0,1,23.827,11.412l49.024,142.332a18.842,18.842,0,0,1-11.649,23.958l-180.776,62.247a17.578,17.578,0,0,0-10.735,9.58l-16.344,33.09a17.879,17.879,0,0,1-10.448,9.491c-.095.034-.19.065-.287.095l-38.273,13.18c-.095.036-.192.068-.284.1a17.877,17.877,0,0,1-14.071-1.045Zm733.258-33.075L3153,4135.915a25.352,25.352,0,0,1,15.7-32.192l396.831-136.639a25.352,25.352,0,0,1,32.192,15.7l130.75,379.726a25.35,25.35,0,0,1-15.7,32.19l-396.831,136.641a25.325,25.325,0,0,1-32.192-15.7Zm-20.87-369.48-.068.022a25.16,25.16,0,0,0-14.453,12.821l-1.587,3.252a25.33,25.33,0,0,0,11.663,33.867l92.3,45.02-44.358,90.955a25.354,25.354,0,0,0,11.661,33.867l3.248,1.586a25.325,25.325,0,0,0,33.867-11.661l57.1-117.071a25.353,25.353,0,0,0-11.661-33.867l-3.25-1.584c-.716-.348-1.433-.657-2.142-.928l-112.977-55.1a25.148,25.148,0,0,0-19.346-1.181ZM3589.13,4226.6l-123.154,42.406a25.35,25.35,0,0,0-15.7,32.192l1.178,3.42a25.352,25.352,0,0,0,32.192,15.7l123.154-42.4a25.36,25.36,0,0,0,15.7-32.194l-1.178-3.419a25.326,25.326,0,0,0-32.192-15.7Zm4222.3,249.358-33.255-16.015a17.273,17.273,0,0,0-14.064-1.043l-46.388,15.974a18.53,18.53,0,0,1-23.644-11.792l-49.015-142.352a18.528,18.528,0,0,1,11.469-23.565l45.807-15.773a18.845,18.845,0,0,1,14.256.65l33.743,16.5a17.882,17.882,0,0,0,14.356.941l38.275-13.178a17.886,17.886,0,0,0,10.733-9.582l16.435-33.776a18.808,18.808,0,0,1,10.837-9.289l180.471-62.143a18.531,18.531,0,0,1,23.829,11.415l49.024,142.332a18.839,18.839,0,0,1-11.649,23.956l-180.775,62.246a17.585,17.585,0,0,0-10.735,9.58l-16.344,33.093a17.877,17.877,0,0,1-10.451,9.491q-.139.048-.285.095l-38.275,13.178c-.093.036-.189.067-.282.1a17.886,17.886,0,0,1-14.071-1.043Zm-1762.987-2.88-33.253-16.012a17.26,17.26,0,0,0-14.067-1.041L5954.736,4472a18.531,18.531,0,0,1-23.648-11.807l-49.015-142.347a18.531,18.531,0,0,1,11.476-23.556l45.805-15.771a18.8,18.8,0,0,1,14.256.652l33.743,16.494a17.872,17.872,0,0,0,14.355.941l38.273-13.177a17.889,17.889,0,0,0,10.735-9.582l16.432-33.776a18.835,18.835,0,0,1,10.839-9.288l225.265-77.564a18.531,18.531,0,0,1,23.545,11.5l49.015,142.347a18.528,18.528,0,0,1-11.365,23.858l-225.561,77.667a17.571,17.571,0,0,0-10.735,9.582l-16.344,33.088a17.884,17.884,0,0,1-10.451,9.492c-.095.031-.189.065-.284.095l-38.273,13.18-.284.1a17.875,17.875,0,0,1-14.071-1.045ZM1068.774,4245.935l46.1,133.884a18.528,18.528,0,0,1-11.365,23.858l-34.736,11.961Zm372.126,34.889L1310.151,3901.1a25.351,25.351,0,0,1,15.7-32.192l396.831-136.639a25.352,25.352,0,0,1,32.192,15.7l130.75,379.726a25.35,25.35,0,0,1-15.7,32.19l-396.831,136.641a25.329,25.329,0,0,1-32.192-15.7Zm-20.87-369.48c-.025.007-.045.016-.068.022a25.157,25.157,0,0,0-14.453,12.819l-1.587,3.252a25.328,25.328,0,0,0,11.663,33.869l92.3,45.02-44.358,90.955a25.355,25.355,0,0,0,11.661,33.867l3.248,1.586a25.324,25.324,0,0,0,33.867-11.663l57.1-117.069a25.353,25.353,0,0,0-11.661-33.867l-3.25-1.584c-.715-.35-1.433-.657-2.142-.928l-112.977-55.1a25.15,25.15,0,0,0-19.346-1.18Zm326.249,80.439-123.154,42.406a25.352,25.352,0,0,0-15.7,32.194l1.176,3.42a25.357,25.357,0,0,0,32.194,15.7l123.154-42.406a25.356,25.356,0,0,0,15.7-32.192l-1.178-3.42a25.329,25.329,0,0,0-32.192-15.7Zm4222.3,249.36-33.253-16.015a17.27,17.27,0,0,0-14.067-1.043l-46.387,15.972a18.526,18.526,0,0,1-23.644-11.789l-49.015-142.352a18.528,18.528,0,0,1,11.469-23.565l45.807-15.773a18.824,18.824,0,0,1,14.256.65l33.743,16.5a17.883,17.883,0,0,0,14.356.944l38.275-13.177a17.9,17.9,0,0,0,10.733-9.582l16.432-33.777a18.818,18.818,0,0,1,10.839-9.288l180.471-62.143a18.533,18.533,0,0,1,23.829,11.412l49.024,142.333A18.841,18.841,0,0,1,6239.8,4114.4l-180.776,62.246a17.578,17.578,0,0,0-10.735,9.58l-16.344,33.09a17.877,17.877,0,0,1-10.449,9.494l-.287.095-38.273,13.18c-.095.034-.192.065-.284.1a17.886,17.886,0,0,1-14.071-1.043Zm-1762.987-2.88-33.253-16.012a17.269,17.269,0,0,0-14.066-1.043l-46.385,15.974a18.536,18.536,0,0,1-23.653-11.807l-49.015-142.347a18.532,18.532,0,0,1,11.478-23.556L4096.5,4043.7a18.793,18.793,0,0,1,14.256.652l33.743,16.493a17.871,17.871,0,0,0,14.355.941l38.273-13.18a17.867,17.867,0,0,0,10.733-9.579l16.437-33.777a18.818,18.818,0,0,1,10.837-9.288L4460.4,3918.4a18.531,18.531,0,0,1,23.545,11.5l49.015,142.349A18.535,18.535,0,0,1,4521.6,4096.1l-225.56,77.666a17.572,17.572,0,0,0-10.735,9.584l-16.344,33.088a17.893,17.893,0,0,1-10.451,9.492c-.095.031-.189.065-.285.095l-38.275,13.18-.282.1a17.875,17.875,0,0,1-14.071-1.043Zm2496.245-30.2L6571.084,3828.34a25.354,25.354,0,0,1,15.7-32.192l396.831-136.641a25.355,25.355,0,0,1,32.192,15.7l130.75,379.729a25.352,25.352,0,0,1-15.7,32.19l-396.831,136.639a25.325,25.325,0,0,1-32.192-15.7Zm-20.87-369.481-.068.025a25.148,25.148,0,0,0-14.453,12.819l-1.587,3.253a25.331,25.331,0,0,0,11.661,33.867l92.305,45.02-44.36,90.958a25.352,25.352,0,0,0,11.663,33.865l3.248,1.587a25.326,25.326,0,0,0,33.867-11.661l57.1-117.071a25.355,25.355,0,0,0-11.661-33.867l-3.25-1.584q-1.074-.521-2.142-.928l-112.977-55.1a25.154,25.154,0,0,0-19.346-1.183Zm326.247,80.441-123.152,42.406a25.35,25.35,0,0,0-15.7,32.192l1.176,3.42a25.358,25.358,0,0,0,32.194,15.7l123.152-42.406a25.359,25.359,0,0,0,15.7-32.194l-1.178-3.42a25.328,25.328,0,0,0-32.194-15.7Zm-2881.485,87.294-33.253-16.012a17.271,17.271,0,0,0-14.067-1.043l-46.387,15.972a18.529,18.529,0,0,1-23.646-11.789L3959.36,3851.1a18.534,18.534,0,0,1,11.471-23.567l45.807-15.771a18.813,18.813,0,0,1,14.257.652l33.742,16.493a17.882,17.882,0,0,0,14.356.944l38.273-13.177a17.882,17.882,0,0,0,10.733-9.584l16.435-33.774a18.816,18.816,0,0,1,10.839-9.291l180.471-62.14a18.531,18.531,0,0,1,23.829,11.412l49.024,142.334a18.84,18.84,0,0,1-11.649,23.955l-180.775,62.246a17.572,17.572,0,0,0-10.735,9.58l-16.344,33.09a17.886,17.886,0,0,1-10.448,9.491c-.1.034-.192.065-.287.1l-38.273,13.177c-.1.036-.192.068-.285.1a17.867,17.867,0,0,1-14.071-1.043Zm-1762.987-2.878-33.253-16.015a17.271,17.271,0,0,0-14.067-1.041l-46.387,15.974a18.539,18.539,0,0,1-23.651-11.807l-49.015-142.347a18.532,18.532,0,0,1,11.478-23.556l45.8-15.773a18.815,18.815,0,0,1,14.257.652l33.742,16.5a17.88,17.88,0,0,0,14.356.941l38.273-13.18a17.873,17.873,0,0,0,10.733-9.579l16.435-33.777a18.826,18.826,0,0,1,10.839-9.288l225.265-77.566a18.534,18.534,0,0,1,23.545,11.5l49.013,142.349a18.533,18.533,0,0,1-11.363,23.859l-225.56,77.665a17.572,17.572,0,0,0-10.735,9.584l-16.344,33.088a17.891,17.891,0,0,1-10.451,9.491l-.284.095-38.275,13.18-.282.1a17.884,17.884,0,0,1-14.071-1.043Zm2496.245-30.2L4728.234,3593.52a25.356,25.356,0,0,1,15.7-32.194l396.829-136.639a25.358,25.358,0,0,1,32.194,15.7l130.75,379.726a25.354,25.354,0,0,1-15.7,32.192l-396.831,136.638a25.325,25.325,0,0,1-32.192-15.7Zm-20.872-369.481c-.023.009-.045.016-.065.023a25.16,25.16,0,0,0-14.453,12.821l-1.586,3.253a25.331,25.331,0,0,0,11.66,33.867l92.306,45.02-44.361,90.956a25.357,25.357,0,0,0,11.661,33.867l3.249,1.587a25.327,25.327,0,0,0,33.869-11.661l57.1-117.071a25.356,25.356,0,0,0-11.661-33.867l-3.252-1.584c-.713-.348-1.431-.655-2.14-.928l-112.977-55.1a25.168,25.168,0,0,0-19.348-1.181Zm326.249,80.442-123.152,42.4a25.354,25.354,0,0,0-15.7,32.194l1.176,3.42a25.355,25.355,0,0,0,32.194,15.7l123.152-42.4a25.358,25.358,0,0,0,15.7-32.194l-1.178-3.42a25.329,25.329,0,0,0-32.194-15.7Zm2459.313,246.478-33.253-16.012a17.256,17.256,0,0,0-14.064-1.041L7529.97,3929.6a18.532,18.532,0,0,1-23.648-11.8l-49.015-142.349a18.531,18.531,0,0,1,11.475-23.556l45.8-15.771a18.8,18.8,0,0,1,14.258.652l33.743,16.493a17.871,17.871,0,0,0,14.356.941l38.272-13.177a17.875,17.875,0,0,0,10.733-9.58l16.435-33.777a18.806,18.806,0,0,1,10.839-9.288l225.265-77.566a18.534,18.534,0,0,1,23.544,11.5l49.015,142.347a18.533,18.533,0,0,1-11.365,23.859l-225.562,77.667a17.565,17.565,0,0,0-10.733,9.582l-16.344,33.088a17.885,17.885,0,0,1-10.451,9.491q-.143.051-.285.095l-38.275,13.18-.285.1a17.877,17.877,0,0,1-14.071-1.045ZM2282.877,3771.5l-33.253-16.013a17.271,17.271,0,0,0-14.067-1.043l-46.387,15.972a18.529,18.529,0,0,1-23.646-11.789l-49.015-142.352a18.534,18.534,0,0,1,11.471-23.567l45.807-15.771a18.824,18.824,0,0,1,14.256.65l33.743,16.5a17.89,17.89,0,0,0,14.356.943l38.273-13.18a17.893,17.893,0,0,0,10.735-9.582l16.432-33.777a18.82,18.82,0,0,1,10.839-9.288l180.471-62.14a18.527,18.527,0,0,1,23.829,11.412l49.024,142.331a18.842,18.842,0,0,1-11.649,23.958l-180.776,62.246a17.572,17.572,0,0,0-10.735,9.58l-16.344,33.09a17.885,17.885,0,0,1-10.451,9.491q-.142.051-.284.095l-38.275,13.18-.282.1a17.867,17.867,0,0,1-14.071-1.043Zm733.258-33.075L2885.383,3358.7a25.355,25.355,0,0,1,15.7-32.192l396.829-136.639a25.354,25.354,0,0,1,32.194,15.7l130.75,379.726a25.355,25.355,0,0,1-15.7,32.192l-396.831,136.639a25.326,25.326,0,0,1-32.192-15.7Zm-20.872-369.481c-.022.009-.045.016-.065.023a25.16,25.16,0,0,0-14.453,12.821l-1.587,3.252a25.329,25.329,0,0,0,11.661,33.867l92.305,45.02-44.361,90.956a25.356,25.356,0,0,0,11.661,33.867l3.248,1.587a25.327,25.327,0,0,0,33.869-11.66l57.1-117.071a25.354,25.354,0,0,0-11.66-33.867l-3.253-1.584c-.713-.35-1.431-.657-2.14-.928l-112.977-55.1a25.158,25.158,0,0,0-19.349-1.181Zm326.249,80.439-123.152,42.406a25.354,25.354,0,0,0-15.7,32.194l1.176,3.42a25.355,25.355,0,0,0,32.194,15.7l123.152-42.4a25.356,25.356,0,0,0,15.7-32.194l-1.176-3.42a25.331,25.331,0,0,0-32.194-15.7Zm4222.3,249.36-33.253-16.015a17.271,17.271,0,0,0-14.066-1.043l-46.388,15.972a18.524,18.524,0,0,1-23.644-11.789l-49.015-142.352a18.528,18.528,0,0,1,11.469-23.565l45.805-15.773a18.833,18.833,0,0,1,14.256.65l33.745,16.5a17.891,17.891,0,0,0,14.356.944l38.273-13.18a17.88,17.88,0,0,0,10.733-9.582l16.434-33.777a18.807,18.807,0,0,1,10.839-9.288l180.471-62.143a18.529,18.529,0,0,1,23.827,11.415l49.026,142.331A18.841,18.841,0,0,1,7815.032,3572l-180.775,62.246a17.572,17.572,0,0,0-10.735,9.58l-16.344,33.09a17.871,17.871,0,0,1-10.451,9.491c-.095.034-.19.065-.285.1l-38.275,13.18c-.093.034-.189.065-.282.1a17.884,17.884,0,0,1-14.071-1.043Zm-1762.989-2.88-33.253-16.012a17.256,17.256,0,0,0-14.064-1.041l-46.387,15.972a18.532,18.532,0,0,1-23.649-11.807l-49.015-142.347a18.532,18.532,0,0,1,11.476-23.556l45.8-15.771a18.8,18.8,0,0,1,14.259.652l33.743,16.493a17.87,17.87,0,0,0,14.355.941l38.273-13.177a17.877,17.877,0,0,0,10.733-9.582l16.435-33.777a18.82,18.82,0,0,1,10.839-9.288L6035.635,3376a18.531,18.531,0,0,1,23.545,11.5l49.012,142.349a18.528,18.528,0,0,1-11.365,23.858l-225.558,77.667a17.569,17.569,0,0,0-10.735,9.582l-16.344,33.088a17.889,17.889,0,0,1-10.451,9.491c-.095.031-.189.065-.284.095l-38.275,13.18c-.092.034-.187.068-.284.1a17.867,17.867,0,0,1-14.071-1.043Zm2496.244-30.2-130.749-379.726a25.353,25.353,0,0,1,15.7-32.192l165.752-57.074v126.164l-52.227-25.47a25.16,25.16,0,0,0-19.349-1.183l-.068.025a25.146,25.146,0,0,0-14.45,12.819l-1.587,3.252a25.327,25.327,0,0,0,11.661,33.867l76.02,37.077v41.335l-28.075,57.565a25.353,25.353,0,0,0,11.663,33.865l3.248,1.589a25.21,25.21,0,0,0,13.164,2.483V3675l-18.514,6.375a25.329,25.329,0,0,1-32.192-15.7ZM1173.284,3503.608l-104.51-303.516V3088.058l386.29-133.009a25.354,25.354,0,0,1,32.194,15.7l130.75,379.726a25.355,25.355,0,0,1-15.7,32.19l-396.831,136.641a25.331,25.331,0,0,1-32.192-15.7Zm-20.872-369.481-.065.023a25.163,25.163,0,0,0-14.455,12.821l-1.585,3.25a25.326,25.326,0,0,0,11.661,33.869l92.305,45.02-44.36,90.955a25.359,25.359,0,0,0,11.663,33.869l3.246,1.584a25.327,25.327,0,0,0,33.869-11.661l57.1-117.071a25.356,25.356,0,0,0-11.661-33.867l-3.253-1.584c-.713-.35-1.431-.657-2.14-.93l-112.977-55.1a25.158,25.158,0,0,0-19.349-1.181Zm326.249,80.439-123.152,42.406a25.355,25.355,0,0,0-15.7,32.192l1.178,3.422a25.356,25.356,0,0,0,32.194,15.7l123.152-42.406a25.353,25.353,0,0,0,15.7-32.192l-1.176-3.42a25.331,25.331,0,0,0-32.194-15.7Zm4222.3,249.358-33.255-16.012a17.265,17.265,0,0,0-14.064-1.043l-46.387,15.972a18.524,18.524,0,0,1-23.644-11.789L5534.6,3308.7a18.528,18.528,0,0,1,11.469-23.565l45.8-15.773a18.821,18.821,0,0,1,14.259.652l33.743,16.493a17.88,17.88,0,0,0,14.355.943l38.273-13.177a17.884,17.884,0,0,0,10.733-9.582l16.435-33.777a18.806,18.806,0,0,1,10.839-9.288l180.471-62.143A18.529,18.529,0,0,1,5934.8,3170.9l49.026,142.333a18.842,18.842,0,0,1-11.649,23.956l-180.776,62.246a17.582,17.582,0,0,0-10.737,9.58l-16.342,33.09a17.877,17.877,0,0,1-10.451,9.491c-.095.034-.189.065-.284.1l-38.273,13.177-.287.1a17.87,17.87,0,0,1-14.069-1.045Zm-1762.987-2.878-33.255-16.012a17.266,17.266,0,0,0-14.065-1.043l-46.387,15.974a18.535,18.535,0,0,1-23.651-11.807L3771.6,3305.811a18.532,18.532,0,0,1,11.478-23.556l45.8-15.771a18.792,18.792,0,0,1,14.256.652l33.745,16.493a17.876,17.876,0,0,0,14.354.941l38.275-13.18a17.867,17.867,0,0,0,10.733-9.58l16.435-33.776a18.821,18.821,0,0,1,10.839-9.288l225.265-77.564a18.528,18.528,0,0,1,23.542,11.5l49.015,142.349a18.531,18.531,0,0,1-11.365,23.858l-225.558,77.665a17.573,17.573,0,0,0-10.735,9.584l-16.344,33.088a17.884,17.884,0,0,1-10.451,9.491l-.287.095-38.273,13.18c-.095.034-.187.068-.284.1a17.869,17.869,0,0,1-14.069-1.043Zm2496.242-30.2-130.75-379.726a25.357,25.357,0,0,1,15.7-32.194L6716,2882.291a25.358,25.358,0,0,1,32.194,15.7l130.75,379.726a25.356,25.356,0,0,1-15.7,32.192l-396.831,136.639a25.328,25.328,0,0,1-32.194-15.7Zm-20.87-369.481c-.022.009-.045.016-.068.023a25.166,25.166,0,0,0-14.453,12.821l-1.584,3.252a25.327,25.327,0,0,0,11.661,33.867l92.305,45.02-44.36,90.958a25.354,25.354,0,0,0,11.661,33.865l3.248,1.587a25.326,25.326,0,0,0,33.869-11.661l57.1-117.071a25.356,25.356,0,0,0-11.663-33.867l-3.25-1.584c-.715-.348-1.431-.657-2.142-.928l-112.974-55.1a25.17,25.17,0,0,0-19.349-1.181Zm326.249,80.442-123.154,42.406a25.354,25.354,0,0,0-15.7,32.192l1.178,3.42a25.353,25.353,0,0,0,32.192,15.7l123.154-42.4a25.358,25.358,0,0,0,15.7-32.194l-1.176-3.42a25.328,25.328,0,0,0-32.194-15.7ZM3858.11,3229.1l-33.253-16.012a17.264,17.264,0,0,0-14.064-1.043l-46.387,15.972a18.527,18.527,0,0,1-23.646-11.789l-49.015-142.352a18.535,18.535,0,0,1,11.471-23.567l45.8-15.771a18.813,18.813,0,0,1,14.256.652l33.745,16.493a17.89,17.89,0,0,0,14.356.943l38.273-13.177a17.888,17.888,0,0,0,10.733-9.584l16.435-33.776a18.812,18.812,0,0,1,10.839-9.288l180.471-62.14a18.527,18.527,0,0,1,23.827,11.412l49.026,142.333a18.841,18.841,0,0,1-11.649,23.956l-180.775,62.246a17.582,17.582,0,0,0-10.738,9.58l-16.342,33.09a17.884,17.884,0,0,1-10.451,9.492c-.095.034-.19.065-.284.1l-38.275,13.177c-.095.034-.189.068-.284.1a17.866,17.866,0,0,1-14.071-1.043Zm-1762.987-2.878-33.253-16.015a17.264,17.264,0,0,0-14.065-1.041l-46.387,15.974a18.539,18.539,0,0,1-23.651-11.807l-49.015-142.347a18.532,18.532,0,0,1,11.478-23.556l45.8-15.773a18.814,18.814,0,0,1,14.256.652l33.745,16.5a17.875,17.875,0,0,0,14.354.941l38.275-13.18a17.873,17.873,0,0,0,10.733-9.58l16.435-33.776a18.812,18.812,0,0,1,10.839-9.288l225.265-77.566a18.532,18.532,0,0,1,23.542,11.5l49.015,142.349a18.533,18.533,0,0,1-11.365,23.858l-225.561,77.665a17.578,17.578,0,0,0-10.733,9.582l-16.344,33.09a17.9,17.9,0,0,1-10.451,9.491l-.284.095-38.275,13.18-.284.1a17.886,17.886,0,0,1-14.071-1.043Zm2496.245-30.2L4460.618,2816.3a25.357,25.357,0,0,1,15.7-32.194l396.831-136.639a25.358,25.358,0,0,1,32.194,15.7l130.75,379.726a25.356,25.356,0,0,1-15.7,32.192l-396.831,136.639a25.326,25.326,0,0,1-32.192-15.7ZM4570.5,2826.55a.589.589,0,0,1-.065.023,25.164,25.164,0,0,0-14.453,12.821l-1.587,3.252a25.33,25.33,0,0,0,11.663,33.867l92.306,45.02L4614,3012.487a25.356,25.356,0,0,0,11.661,33.867l3.248,1.587a25.328,25.328,0,0,0,33.869-11.661l57.1-117.071a25.356,25.356,0,0,0-11.661-33.867l-3.252-1.585c-.716-.347-1.434-.655-2.142-.927l-112.975-55.1a25.176,25.176,0,0,0-19.351-1.18Zm326.251,80.442-123.154,42.4a25.357,25.357,0,0,0-15.7,32.194l1.178,3.419a25.353,25.353,0,0,0,32.192,15.7l123.154-42.4a25.358,25.358,0,0,0,15.7-32.194l-1.176-3.42a25.328,25.328,0,0,0-32.194-15.7Zm2459.313,246.478-33.253-16.012a17.256,17.256,0,0,0-14.064-1.041l-46.387,15.972a18.535,18.535,0,0,1-23.651-11.807l-49.015-142.347a18.534,18.534,0,0,1,11.476-23.556l45.8-15.771a18.8,18.8,0,0,1,14.259.652l33.743,16.493a17.866,17.866,0,0,0,14.354.941l38.275-13.177a17.879,17.879,0,0,0,10.733-9.579l16.435-33.779a18.82,18.82,0,0,1,10.839-9.288l225.265-77.564a18.532,18.532,0,0,1,23.542,11.5l49.015,142.347a18.528,18.528,0,0,1-11.365,23.858L7446.5,3088.977a17.573,17.573,0,0,0-10.737,9.582l-16.342,33.088a17.892,17.892,0,0,1-10.451,9.491c-.095.034-.189.065-.287.095l-38.272,13.18c-.093.034-.19.068-.285.1a17.866,17.866,0,0,1-14.071-1.043Zm-5340.8-159.183-33.253-16.012a17.269,17.269,0,0,0-14.067-1.043l-46.385,15.972a18.532,18.532,0,0,1-23.646-11.789l-49.015-142.349a18.535,18.535,0,0,1,11.471-23.57l45.805-15.771a18.813,18.813,0,0,1,14.256.65l33.745,16.5a17.889,17.889,0,0,0,14.356.944l38.273-13.18a17.884,17.884,0,0,0,10.733-9.582l16.435-33.776a18.812,18.812,0,0,1,10.839-9.288l180.471-62.14a18.529,18.529,0,0,1,23.829,11.415l49.024,142.329a18.841,18.841,0,0,1-11.649,23.956L2105.7,2929.791a17.586,17.586,0,0,0-10.735,9.582l-16.342,33.09a17.884,17.884,0,0,1-10.451,9.491c-.095.032-.189.066-.284.095l-38.275,13.18c-.095.034-.19.068-.284.1a17.866,17.866,0,0,1-14.071-1.043Zm733.257-33.074-130.75-379.728a25.355,25.355,0,0,1,15.7-32.192L3030.3,2412.652a25.353,25.353,0,0,1,32.192,15.7l130.752,379.726a25.357,25.357,0,0,1-15.7,32.192L2780.708,2976.91a25.331,25.331,0,0,1-32.192-15.7Zm-20.87-369.481-.068.022a25.161,25.161,0,0,0-14.453,12.821l-1.584,3.25a25.33,25.33,0,0,0,11.661,33.869l92.3,45.02-44.358,90.956a25.359,25.359,0,0,0,11.661,33.869l3.248,1.584a25.328,25.328,0,0,0,33.869-11.661l57.1-117.071a25.355,25.355,0,0,0-11.663-33.867l-3.25-1.585c-.716-.35-1.433-.657-2.142-.93L2747,2592.911a25.156,25.156,0,0,0-19.349-1.18Zm326.249,80.439-123.154,42.406a25.357,25.357,0,0,0-15.7,32.194l1.178,3.419a25.353,25.353,0,0,0,32.192,15.7l123.154-42.406a25.355,25.355,0,0,0,15.7-32.192l-1.178-3.419a25.329,25.329,0,0,0-32.192-15.7Zm4222.3,249.36-33.252-16.015a17.27,17.27,0,0,0-14.067-1.043l-46.385,15.972a18.523,18.523,0,0,1-23.644-11.789L7109.829,2766.3a18.531,18.531,0,0,1,11.471-23.565l45.805-15.773a18.835,18.835,0,0,1,14.256.652l33.745,16.493a17.866,17.866,0,0,0,14.354.944l38.275-13.177a17.888,17.888,0,0,0,10.733-9.582l16.435-33.776a18.808,18.808,0,0,1,10.837-9.288l180.473-62.143a18.529,18.529,0,0,1,23.827,11.415l49.024,142.331a18.838,18.838,0,0,1-11.647,23.956l-180.778,62.246a17.578,17.578,0,0,0-10.735,9.579l-16.344,33.09a17.866,17.866,0,0,1-10.448,9.491c-.1.034-.19.065-.287.1l-38.273,13.177-.285.1a17.886,17.886,0,0,1-14.071-1.043Zm-1762.987-2.88-33.253-16.012a17.256,17.256,0,0,0-14.064-1.041l-46.387,15.972a18.535,18.535,0,0,1-23.651-11.807l-49.013-142.347a18.529,18.529,0,0,1,11.476-23.556l45.8-15.771a18.793,18.793,0,0,1,14.256.652l33.745,16.493a17.866,17.866,0,0,0,14.354.941L5504.748,2729a17.885,17.885,0,0,0,10.733-9.582l16.435-33.776a18.819,18.819,0,0,1,10.839-9.288l225.265-77.564a18.529,18.529,0,0,1,23.542,11.5l49.015,142.349a18.528,18.528,0,0,1-11.365,23.858l-225.561,77.665a17.578,17.578,0,0,0-10.735,9.584l-16.342,33.088a17.888,17.888,0,0,1-10.451,9.491c-.095.032-.189.066-.287.095l-38.273,13.18c-.092.034-.189.068-.284.1a17.866,17.866,0,0,1-14.071-1.043Zm2496.245-30.2L7878.7,2508.727a25.353,25.353,0,0,1,15.7-32.192l396.831-136.641a25.356,25.356,0,0,1,32.192,15.7l4.348,12.625v230.258a25.235,25.235,0,0,0-12.943.935l-123.154,42.406a25.354,25.354,0,0,0-15.7,32.192l1.176,3.42a25.36,25.36,0,0,0,32.194,15.7l118.428-40.778V2805.63l-286.13,98.521a25.325,25.325,0,0,1-32.192-15.7Zm-20.87-369.481-.068.025a25.156,25.156,0,0,0-14.453,12.818l-1.584,3.253a25.326,25.326,0,0,0,11.661,33.867l92.3,45.022-44.358,90.955a25.351,25.351,0,0,0,11.661,33.865l3.248,1.587a25.322,25.322,0,0,0,33.867-11.661l57.1-117.069a25.358,25.358,0,0,0-11.663-33.869l-3.25-1.585c-.715-.348-1.431-.655-2.142-.928l-112.977-55.1a25.152,25.152,0,0,0-19.346-1.183ZM1068.774,2218.695l47.744-16.439h106.125l127.749,371a25.354,25.354,0,0,1-15.7,32.19l-265.914,91.562Zm142.27,218.655-123.154,42.406a25.356,25.356,0,0,0-15.7,32.192l1.178,3.422a25.355,25.355,0,0,0,32.192,15.7l123.154-42.406a25.356,25.356,0,0,0,15.7-32.192l-1.178-3.419a25.329,25.329,0,0,0-32.192-15.7Zm4222.3,249.358-33.253-16.012a17.27,17.27,0,0,0-14.067-1.043l-46.385,15.972A18.523,18.523,0,0,1,5316,2673.835l-49.017-142.352a18.532,18.532,0,0,1,11.471-23.567l45.8-15.771a18.813,18.813,0,0,1,14.256.652l33.745,16.493a17.874,17.874,0,0,0,14.354.944l38.275-13.177a17.891,17.891,0,0,0,10.733-9.582l16.435-33.776a18.818,18.818,0,0,1,10.837-9.291l180.473-62.14a18.531,18.531,0,0,1,23.827,11.412l49.024,142.333a18.841,18.841,0,0,1-11.649,23.956l-180.775,62.246a17.577,17.577,0,0,0-10.735,9.579l-16.344,33.09a17.872,17.872,0,0,1-10.449,9.491c-.095.034-.189.065-.287.1l-38.273,13.177c-.092.034-.189.068-.284.1a17.864,17.864,0,0,1-14.071-1.043Zm-1762.987-2.878-33.253-16.012a17.256,17.256,0,0,0-14.064-1.041l-46.387,15.972A18.541,18.541,0,0,1,3553,2670.942l-49.013-142.347a18.529,18.529,0,0,1,11.478-23.556l45.8-15.773a18.814,18.814,0,0,1,14.256.652l33.745,16.5a17.875,17.875,0,0,0,14.353.941l38.273-13.18a17.878,17.878,0,0,0,10.735-9.58l16.435-33.776a18.814,18.814,0,0,1,10.837-9.288l225.267-77.566a18.532,18.532,0,0,1,23.542,11.5l49.015,142.349a18.533,18.533,0,0,1-11.365,23.858l-225.56,77.665a17.577,17.577,0,0,0-10.735,9.584l-16.344,33.088a17.887,17.887,0,0,1-10.448,9.491l-.287.095-38.273,13.18-.284.1a17.884,17.884,0,0,1-14.071-1.043Zm2496.244-30.2-130.75-379.726a25.354,25.354,0,0,1,15.7-32.194l114.595-39.458h342.484l102.7,298.246a25.357,25.357,0,0,1-15.7,32.192l-396.831,136.639a25.327,25.327,0,0,1-32.192-15.7Zm-20.87-369.481-.068.022A25.167,25.167,0,0,0,6131.211,2297l-1.587,3.253a25.33,25.33,0,0,0,11.663,33.867l92.3,45.02-44.358,90.956a25.354,25.354,0,0,0,11.661,33.867l3.248,1.587a25.325,25.325,0,0,0,33.867-11.661l57.1-117.071a25.356,25.356,0,0,0-11.663-33.867l-3.25-1.584c-.715-.348-1.431-.657-2.142-.928l-112.977-55.1a25.162,25.162,0,0,0-19.346-1.18Zm326.249,80.441L6348.827,2407a25.352,25.352,0,0,0-15.7,32.192l1.178,3.42a25.356,25.356,0,0,0,32.192,15.7l123.154-42.406a25.358,25.358,0,0,0,15.7-32.194l-1.178-3.42a25.327,25.327,0,0,0-32.192-15.7Zm-2881.487,87.294-33.253-16.012a17.271,17.271,0,0,0-14.067-1.043l-46.387,15.972a18.53,18.53,0,0,1-23.644-11.789l-49.015-142.349A18.533,18.533,0,0,1,3435.6,2273.1l45.8-15.771a18.8,18.8,0,0,1,14.256.652l33.745,16.493a17.874,17.874,0,0,0,14.354.944l38.275-13.18a17.894,17.894,0,0,0,10.733-9.58l16.435-33.779a18.813,18.813,0,0,1,10.839-9.288l21.3-7.333h197.945l34.078,98.939a18.841,18.841,0,0,1-11.649,23.956L3680.937,2387.4a17.577,17.577,0,0,0-10.735,9.579l-16.342,33.09a17.889,17.889,0,0,1-10.451,9.491c-.095.034-.19.065-.287.095l-38.273,13.18-.284.1a17.864,17.864,0,0,1-14.071-1.043Zm-1762.987-2.878L1794.254,2433a17.265,17.265,0,0,0-14.064-1.041l-46.387,15.974a18.54,18.54,0,0,1-23.653-11.807l-49.015-142.347a18.535,18.535,0,0,1,11.478-23.558l45.805-15.771a18.813,18.813,0,0,1,14.256.652l33.745,16.5a17.875,17.875,0,0,0,14.354.941l38.273-13.18a17.878,17.878,0,0,0,10.735-9.58L1846.214,2216a18.814,18.814,0,0,1,10.837-9.288l12.94-4.456h257.084l27.8,80.737a18.534,18.534,0,0,1-11.365,23.856l-225.56,77.667a17.582,17.582,0,0,0-10.735,9.582l-16.344,33.09a17.892,17.892,0,0,1-10.448,9.491l-.287.095-38.273,13.18-.284.1a17.884,17.884,0,0,1-14.071-1.043Zm2496.245-30.2-74.567-216.559h113.3l-16.1,33.016a25.358,25.358,0,0,0,11.661,33.869l3.248,1.584a25.325,25.325,0,0,0,33.867-11.661l27.708-56.809h66.783q.265,1.062.626,2.117l1.178,3.42a25.352,25.352,0,0,0,32.192,15.7l61.679-21.238h161.313l21.84,63.427a25.358,25.358,0,0,1-15.7,32.192l-396.831,136.639a25.327,25.327,0,0,1-32.192-15.7Zm2764.691-42.562-33.255-16.012a17.255,17.255,0,0,0-14.064-1.041l-46.388,15.972a18.53,18.53,0,0,1-23.648-11.807l-49.015-142.347a18.532,18.532,0,0,1,4.043-18.762h486.948l2.748,7.979a18.528,18.528,0,0,1-11.365,23.858l-225.56,77.667a17.574,17.574,0,0,0-10.735,9.582l-16.344,33.088a17.884,17.884,0,0,1-10.451,9.491c-.093.032-.187.065-.285.095L7102.8,2377.2c-.09.034-.187.068-.282.1a17.864,17.864,0,0,1-14.071-1.043Zm-5340.8-159.183-30.764-14.814H1805.3a17.876,17.876,0,0,1-4.746,2.483l-.287.095L1762,2218.013l-.284.1a17.884,17.884,0,0,1-14.071-1.043Zm-108-2.025a18.529,18.529,0,0,1-9.352-10.848l-.668-1.941h64.19l-39.878,13.73a18.523,18.523,0,0,1-14.292-.941Z" transform="translate(-2228.274 -2316.756)" fill="#bbb0f7"/>
  </g>
</svg>
