<svg xmlns="http://www.w3.org/2000/svg" xmlns:xlink="http://www.w3.org/1999/xlink" fill="none" version="1.1" width="6044.90185546875" height="1307.37890625" viewBox="0 0 6044.90185546875 1307.37890625"><g style="mix-blend-mode:passthrough"><g><g style="mix-blend-mode:passthrough"><g><g style="mix-blend-mode:passthrough"><path d="M0,657.37890625C0,1135.69890625,171.68,1307.37890625,650,1307.37890625C1128.32,1307.37890625,1300,1135.69890625,1300,657.37890625C1300,179.05890625,1128.32,7.37890625,650,7.37890625C171.68,7.37890625,0,179.05890625,0,657.37890625Z" fill-rule="evenodd" fill="#6B50F3" fill-opacity="1"/></g><g style="mix-blend-mode:passthrough"><g><g style="mix-blend-mode:passthrough"><path d="M752.2583274169922,994.04947265625C785.9383274169921,994.04947265625,847.7582274169922,994.04947265625,884.0782274169921,994.04947265625C900.9782274169922,994.04947265625,915.7082274169923,982.54947265625,919.8082274169922,966.14947265625C945.0482274169922,865.18947265625,1031.3582274169921,519.95947265625,1054.4482274169923,427.58947265625C1055.8282274169921,422.09947265625,1054.5882274169921,416.26947265625,1051.0982274169921,411.78947265625C1047.6082274169921,407.32947265625,1042.2582274169922,404.70947265625,1036.5782274169921,404.70947265625L904.7582274169922,404.70947265625C887.8582274169921,404.70947265625,873.1282274169922,416.20947265625,869.0282274169922,432.60947265625L734.3883344169922,971.16947265625C733.0083344169922,976.65947265625,734.2483344169922,982.48947265625,737.7383374169922,986.96947265625C741.2283374169922,991.42947265625,746.5883274169922,994.04947265625,752.2583274169922,994.04947265625Z" fill-rule="evenodd" fill="#FFFFFF" fill-opacity="1"/></g><g style="mix-blend-mode:passthrough"><path d="M406.09984851074216,958.30947265625C425.4098485107422,881.07947265625,470.4498485107422,700.92947265625,484.7798485107422,643.57947265625C487.7098485107422,631.84947265625,487.7098485107422,619.57947265625,484.7798485107422,607.84947265625L440.96984851074217,432.60947265625C436.8698485107422,416.20947265625,422.1398485107422,404.70947265625,405.23984851074215,404.70947265625L273.4199485107422,404.70947265625C267.7499485107422,404.70947265625,262.3899585107422,407.32947265625,258.8999585107422,411.78947265625C255.40995551074218,416.26947265625,254.1699555107422,422.09947265625,255.5499555107422,427.58947265625L388.22984851074216,958.30947265625C389.2598485107422,962.41947265625,392.9398485107422,965.28947265625,397.1598485107422,965.28947265625C401.3898485107422,965.28947265625,405.0698485107422,962.41947265625,406.09984851074216,958.30947265625Z" fill-rule="evenodd" fill="#FFFFFF" fill-opacity="1"/></g><g style="mix-blend-mode:passthrough"><path d="M625.1393859863281,966.14947265625C628.5693859863281,952.44947265625,632.8693859863281,935.23947265625,637.1293859863281,918.17947265625C639.1793859863282,909.97947265625,646.5493859863282,904.22947265625,654.9993859863281,904.22947265625C663.4493859863281,904.22947265625,670.8193859863281,909.97947265625,672.8693859863281,918.17947265625C676.3493859863281,932.10947265625,679.8593859863281,946.16947265625,682.8993859863281,958.30947265625C683.9293859863282,962.40947265625,687.6093859863281,965.28947265625,691.8393859863281,965.28947265625C696.0593859863282,965.28947265625,699.7393859863281,962.40947265625,700.7693859863282,958.30947265625C720.0793859863281,881.07947265625,765.1193859863281,700.92947265625,779.4493859863281,643.57947265625C782.3793859863281,631.84947265625,782.3793859863281,619.57947265625,779.4493859863281,607.84947265625C769.8493859863281,569.41947265625,747.1593859863281,478.68947265625,735.6393859863281,432.60947265625C731.5393859863282,416.20947265625,716.8093859863282,404.70947265625,699.9093859863281,404.70947265625L610.0893859863281,404.70947265625C593.1893859863281,404.70947265625,578.4593859863281,416.20947265625,574.3593859863281,432.60947265625C550.8793859863281,526.51947265625,474.5692859863281,831.76947265625,445.4392859863281,948.27947265625C442.6892859863281,959.28947265625,445.15928998632813,970.94947265625,452.1392859863281,979.88947265625C459.1192859863281,988.82947265625,469.8292859863281,994.04947265625,481.16928598632813,994.04947265625L589.4093859863281,994.04947265625C606.3093859863282,994.04947265625,621.0393859863282,982.54947265625,625.1393859863281,966.14947265625Z" fill-rule="evenodd" fill="#FFFFFF" fill-opacity="1"/></g></g></g></g></g><g style="mix-blend-mode:passthrough"><path d="M4991.27,1111.5C4992.780000000001,1115.97,4994.43,1120.4,4996.23,1124.8C5007.07,1151.32,5022.91,1175.49,5042.9,1196C5043.719999999999,1196.85,5044.55,1197.69,5045.38,1198.52C5066.4400000000005,1219.66,5091.52,1236.37,5119.139999999999,1247.65C5146.27,1258.79,5175.32,1264.53,5204.639999999999,1264.55L5204.639999999999,1264.54C5227.21,1264.72,5248.9400000000005,1256.03,5265.15,1240.33C5281.87,1224.62,5291.25,1202.63,5291.01,1179.69C5290.79,1132.09,5252.24,1093.56,5204.639999999999,1093.36C5190.6,1093.36,5177.9,1088.36,5165.87,1078.08C5155.58,1066.05,5150.58,1053.36,5150.58,1039.33L5150.58,84.0327C5150.59,61.3827,5141.23,39.7327,5124.71,24.2227C5108.51,8.52274,5086.780000000001,-0.177262,5064.21,0.00273845C5040.95,0.00273845,5020.139999999999,8.53274,5004,24.6627C4987.85,40.8027,4979.32,61.6127,4979.32,84.8627L4979.32,1039.34C4979.32,1063.88,4983.360000000001,1088.26,4991.27,1111.5ZM4190.09,992.073C4189.98,991.083,4189.87,990.083,4189.76,989.083C4185.96,953.413,4184.02,908.643,4184.02,856.123C4184.02,796.323,4186.0599999999995,746.123,4190.08,706.923C4195.33,655.893,4211.83,606.673,4238.4,562.793C4265.45,517.923,4302.6900000000005,481.503,4349.09,454.533C4395.71,427.443,4448.8099999999995,413.713,4506.92,413.713C4541.46,413.713,4577.8,422.283,4614.92,439.193C4628.57,445.373,4641.68,452.693,4654.1,461.073L4654.1,92.2426C4654.1,69.0026,4662.639999999999,48.1826,4678.780000000001,32.0526C4694.92,15.9226,4715.74,7.39258,4739,7.39258C4742.09,7.39258,4745.139999999999,7.54258,4748.13,7.84258C4788.05,11.8426,4819.58,43.4626,4823.469999999999,83.3826C4823.76,86.2926,4823.9,89.2526,4823.9,92.2426L4823.9,1184.12C4823.9,1206.17,4815.26,1226.83,4798.91,1243.88C4798.719999999999,1244.08,4798.52,1244.28,4798.33,1244.49C4781.76,1261.48,4761.26,1270.45,4739,1270.45C4715.75,1270.45,4694.92,1261.93,4678.780000000001,1245.79L4678.55,1245.56C4673.719999999999,1240.72,4669.5,1235.32,4665.969999999999,1229.47C4651.76,1239.77,4636.68,1248.78,4620.88,1256.41C4615.98,1258.83,4611.1,1261.09,4606.219999999999,1263.2C4573.63,1277.3,4541.469999999999,1284.69,4510.38,1285.2C4509.219999999999,1285.22,4508.07,1285.23,4506.92,1285.23C4499.3099999999995,1285.23,4491.8,1285,4484.360000000001,1284.52C4435.02,1281.4,4389.610000000001,1267.95,4349.09,1244.4C4302.6900000000005,1217.44,4265.4400000000005,1181.01,4238.4,1136.14C4237.88,1135.28,4237.360000000001,1134.41,4236.85,1133.54C4211.1900000000005,1090.33,4195.23,1042.06,4190.09,992.073ZM4030.38,1246.68C4030.01,1247.04,4029.63,1247.4,4029.24,1247.76C4013.3,1262.63,3994.04,1270.46,3973.26,1270.46C3950.73,1270.46,3930.48,1262.46,3914.56,1247.29C3914.05,1246.8,3913.54,1246.3,3913.03,1245.8C3908.11,1240.9,3903.81,1235.42,3900.22,1229.47C3886.02,1239.77,3870.93,1248.79,3855.13,1256.42C3817.54,1274.94,3780.38,1284.62,3744.63,1285.2C3743.48,1285.22,3742.32,1285.23,3741.17,1285.23L3741.18,1285.24C3683.08,1285.24,3629.97,1271.5,3583.36,1244.41C3536.96,1217.45,3499.71,1181.02,3472.67,1136.15C3446.1099999999997,1092.29,3429.6099999999997,1043.08,3424.3599999999997,992.076C3420.34,955.927,3418.29,910.126,3418.29,856.126C3418.29,796.326,3420.33,746.126,3424.35,706.927C3429.6,655.896,3446.1,606.677,3472.67,562.797C3499.71,517.927,3536.95,481.506,3583.36,454.536C3629.97,427.446,3683.08,413.716,3741.18,413.716C3775.73,413.716,3812.07,422.286,3849.18,439.196C3862.84,445.376,3875.94,452.696,3888.37,461.076L3888.37,92.2465C3888.22,76.5065,3892.49,61.0365,3900.7,47.6065C3904.2,41.9565,3908.34,36.7465,3913.04,32.0565C3920.36,24.6865,3928.98,18.7465,3938.47,14.5265C3948.52,10.1465,3959.32,7.73648,3970.27,7.44648L3970.93,7.42648C3971.7,7.40648,3972.48,7.39648,3973.26,7.39648C3995.88,7.39648,4016.2,15.4665,4032.15,30.7465C4032.6,31.1765,4033.04,31.6165,4033.48,32.0565C4049.62,48.1865,4058.16,69.0065,4058.16,92.2465L4058.16,1184.13C4058.16,1206.17,4049.52,1226.84,4033.17,1243.88C4032.98,1244.09,4032.78,1244.29,4032.58,1244.49C4031.99,1245.1,4031.4,1245.69,4030.79,1246.28L4030.41,1246.65L4030.38,1246.68ZM1600.28,86.9204C1615.82,99.2604,1626.1100000000001,117.02,1629.08,136.64L1776.45,845.52L1939.29,133.13C1939.81,130.85,1940.42,128.61,1941.1100000000001,126.42C1946.13,110.14,1956.19,95.8704,1969.84,85.6604C1977.63,79.6904,1986.4,75.1104,1995.76,72.1204C1996.1,72.0204,1996.4299999999998,71.9104,1996.76,71.8104L1996.77,71.8104C2002.15,70.1904,2007.6599999999999,69.0804,2013.25,68.5004C2013.6799999999998,68.4604,2014.1,68.4104,2014.53,68.3804C2014.8400000000001,68.3504,2015.1599999999999,68.3204,2015.48,68.2904L2016.04,68.2504C2018.48,68.0704,2020.95,67.9704,2023.46,67.9704C2042.33,67.8704,2060.69,74.1004,2075.6,85.6704C2091.13,97.3004,2101.9700000000003,114.12,2106.14,133.07L2268.99,845.51L2416.64,135.16C2419.41,116.9,2429.37,99.7104,2445.17,86.9204C2460.71,74.3504,2478.48,67.9704,2497.98,67.9704C2506.13,67.9704,2512.63,68.7004,2518.21,70.2604C2541,74.9504,2559.51,87.7104,2571.81,107.24C2583.9,125.87,2588.21,148.5,2583.8,170.27L2357.52,1209.44C2353.49,1227.69,2343.5299999999997,1244.1,2329.18,1256.08C2328.65,1256.53,2328.12,1256.97,2327.58,1257.41C2312.0299999999997,1269.99,2294.27,1276.36,2274.77,1276.36L2273.2799999999997,1276.37C2254.41,1276.48,2236.05,1270.25,2221.13,1258.68C2220.83,1258.44,2220.52,1258.21,2220.2200000000003,1257.97C2205.17,1246.36,2194.68,1229.83,2190.6,1211.27L2023.35,480.56L1854.84,1211.26C1850.8,1229.67,1840.45,1246.09,1825.59,1257.68C1825.16,1258.01,1824.74,1258.34,1824.31,1258.67C1808.8899999999999,1270.41,1790.85,1276.37,1770.68,1276.37C1751.18,1276.37,1733.41,1269.99,1717.87,1257.41C1717.3899999999999,1257.02,1716.91,1256.63,1716.44,1256.23C1702.08,1244.33,1692.07,1227.99,1688,1209.79L1461.75,170.75C1460.59,165.03,1460.01,159.2,1460,153.37C1460.05,137,1464.79,121,1473.64,107.24C1474.12,106.48,1474.61,105.72,1475.11,104.98C1487.39,86.7304,1505.34,74.7704,1527.24,70.2604C1532.81,68.7004,1539.31,67.9704,1547.47,67.9704C1566.97,67.9704,1584.73,74.3504,1600.28,86.9204ZM6008.48,1024.3C6030.95,1037.74,6043.44,1060.55,6043.44,1089.55C6043.44,1106.45,6039.13,1120.57,6030.61,1131.54C5993.77,1187.5,5953.77,1227.3,5911.64,1249.91C5910.46,1250.54,5909.27,1251.16,5908.08,1251.77C5864.14,1274.28,5803.77,1285.22,5723.51,1285.22C5720.81,1285.23,5718.14,1285.21,5715.48,1285.16C5627.34,1283.66,5554.67,1257.32,5499.38,1206.79C5442.08,1154.42,5410.84,1081.63,5406.55,990.444C5406.32,986.054,5406.09,981.714,5405.88,977.424C5403.360000000001,926.824,5402.08,883.534,5402.08,848.734C5402.08,815.284,5403.2,775.494,5405.42,730.214C5405.77,723.034,5406.15,715.734,5406.5599999999995,708.284C5410.84,617.364,5442.030000000001,544.364,5499.27,491.514C5556.24,438.914,5631.68,412.234,5723.49,412.234C5815.31,412.234,5890.76,438.904,5947.73,491.504C5949.29,492.954,5950.84,494.414,5952.36,495.884C6006.65,548.354,6036.27,619.844,6040.45,708.484C6040.82,716.314,6041.16,723.664,6041.46,730.514C6042.79,760.644,6043.44,781.534,6043.44,794.054L6044.9,834.394C6044.91,858.664,6036.38,879.484,6020.24,895.614C6004.1,911.754,5983.28,920.274,5960.02,920.274L5575.19,920.274C5575.63,939.834,5576.49,962.374,5577.75,987.654C5579.45,1027.5,5592.92,1060.43,5618.93,1088.52C5644.03,1115.63,5678.23,1128.81,5723.5,1128.81L5725,1128.81C5766.97,1128.66,5801.23,1122.2,5826.87,1109.59C5852.36,1097.07,5876.29,1074.87,5898,1043.63C5915.28,1021.56,5937.41,1010.61,5962.98,1010.61C5979.18,1010.5,5995.03,1015.27,6008.48,1024.3ZM2797.69,1240.77C2755.6400000000003,1215.22,2720.4300000000003,1179.82,2695.1099999999997,1137.63C2693.12,1134.34,2691.2,1131.03,2689.33,1127.7C2666.12,1086.36,2651.6400000000003,1040.71,2646.8,993.546C2643.3900000000003,962.906,2641.4,925.326,2640.87,881.696C2640.7799999999997,873.856,2640.73,865.826,2640.73,857.596L2640.73,856.196C2640.76,797.036,2642.8,746.836,2646.79,706.996C2651.9700000000003,656.556,2668.1400000000003,607.866,2694.1800000000003,564.356L2695.1099999999997,562.796C2721.96,518.096,2759.85,481.056,2805.15,455.216C2851.25,428.656,2904.5699999999997,415.186,2963.62,415.186C2966.9300000000003,415.186,2970.26,415.256,2973.6099999999997,415.386C3004.54,416.636,3037.1099999999997,423.626,3070.5699999999997,436.236C3087.49,442.496,3103.75,450.396,3119.13,459.816C3121.48,461.286,3123.79,462.776,3126.05,464.296C3128.88,460.316,3132.0299999999997,456.586,3135.48,453.146C3151.63,437.006,3172.45,428.476,3195.71,428.476C3218.96,428.476,3239.79,437.006,3255.9300000000003,453.146C3272.0699999999997,469.276,3280.6,490.086,3280.6,513.336L3280.6,1018.65C3280.6,1082.4,3282.63,1110.37,3284.44,1122.64C3284.51,1123.16,3284.59,1123.66,3284.67,1124.12C3286.3900000000003,1134.75,3289.16,1137.46,3289.19,1137.49C3304.1,1144.65,3316.5,1156.15,3324.7799999999997,1170.48C3332.69,1184.04,3336.83,1199.46,3336.7799999999997,1215.16C3336.81,1228.33,3333.75,1241.33,3327.83,1253.11C3320.6400000000003,1267.74,3309.24,1279.9,3295.1,1288.02C3281.5299999999997,1295.93,3266.1,1300.07,3250.4,1300.01C3249.8199999999997,1300.01,3249.23,1300.01,3248.65,1300C3219.42,1299.47,3192.06,1285.72,3167.2799999999997,1259.09C3156.98,1248.12,3147.9300000000003,1236.02,3140.3199999999997,1223.04C3121.65,1239.49,3100.4,1252.77,3077.4300000000003,1262.34C3041.3900000000003,1277.46,3002.7,1285.25,2963.62,1285.24C2904.5699999999997,1285.24,2851.25,1271.77,2805.1400000000003,1245.21C2802.63,1243.76,2800.1400000000003,1242.28,2797.69,1240.77ZM3065.96,1089.29C3091.95,1061.19,3106.6800000000003,1027.9,3110.9700000000003,987.538C3115.75,941.918,3118.16,896.078,3118.2,850.208C3118.2,845.168,3118.17,840.128,3118.1099999999997,835.088C3117.6400000000003,794.058,3115.24,753.018,3110.9700000000003,712.878C3106.71,673.648,3091.31,640.408,3063.92,611.318C3037.8199999999997,583.598,3005.01,570.118,2963.62,570.118C2922.24,570.118,2889.4300000000003,583.598,2863.3199999999997,611.318C2835.9300000000003,640.408,2820.54,673.648,2816.26,712.948C2812.45,747.258,2810.52,790.938,2810.52,842.818C2810.52,900.688,2812.46,949.438,2816.29,987.718C2820.5699999999997,1027.9,2835.29,1061.19,2861.2799999999997,1089.29C2885.1099999999997,1115.06,2917.27,1128.01,2959.5,1128.79C2960.87,1128.82,2962.24,1128.83,2963.62,1128.83C3007.8900000000003,1128.83,3041.3599999999997,1115.9,3065.96,1089.29ZM3741.18,570.12C3699.8,570.12,3666.99,583.6,3640.88,611.32C3613.49,640.41,3598.1,673.65,3593.82,712.95C3593.37,719.39,3592.94,725.72,3592.53,731.95C3589.6,777.13,3588.08,816.59,3588.08,848.73C3588.08,879.83,3589.43,917.1,3592.09,959.78C3592.64,968.64,3593.25,977.73,3593.92,987.05C3598.14,1026.5,3612.91,1060.08,3638.99,1088.71C3662.9,1114.96,3695.18,1128.1,3737.58,1128.8C3738.77,1128.82,3739.97,1128.83,3741.18,1128.83Q3742.98,1128.83,3744.78,1128.8C3787.18,1128.1,3819.46,1114.96,3843.38,1088.71C3868.54,1061.09,3883.18,1028.86,3888.04,990.3C3888.22,988.9,3888.38,987.48,3888.53,986.06C3889.21,979.59,3889.83,973.12,3890.41,966.64C3893.97,927.07,3895.76,887.48,3895.76,848.73C3895.76,810.35,3894,771.51,3890.51,732.99C3889.9,726.28,3889.24,719.58,3888.53,712.89C3884.31,674.11,3869.23,641.19,3842.44,612.35C3842.12,612.01,3841.8,611.66,3841.48,611.32C3840.62,610.4,3839.74,609.5,3838.86,608.61C3813.19,582.72,3781.19,570.12,3741.18,570.12ZM5575.37,762.062L5575.31,763.882L5871.68,763.882C5871.21,748.472,5870.4,730.972,5869.25,711.532C5867.54,671.432,5854.08,638.502,5828.06,610.412C5827.13,609.402,5826.19,608.412,5825.23,607.452C5800.41,582.342,5767.08,570.122,5723.49,570.122C5678.23,570.122,5644.02,583.302,5618.93,610.412C5618.32,611.072,5617.71,611.732,5617.12,612.392C5592.29,640.052,5579.41,672.362,5577.76,711.072C5576.64,730.032,5575.85,747.022,5575.37,762.062ZM4652.46,700.226C4653.2,704.376,4653.8,708.596,4654.26,712.886C4659.0599999999995,758.006,4661.48,803.356,4661.49,848.736C4661.49,887.486,4659.7,927.076,4656.15,966.646C4655.57,973.116,4654.9400000000005,979.596,4654.26,986.066C4654.110000000001,987.486,4653.95,988.896,4653.77,990.306C4649.2,1026.52,4636.02,1057.14,4613.59,1083.62L4613.58,1083.63L4613.4400000000005,1083.79C4612.030000000001,1085.45,4610.59,1087.09,4609.110000000001,1088.71C4608.63,1089.24,4608.139999999999,1089.76,4607.66,1090.28C4583.889999999999,1115.49,4552.0599999999995,1128.12,4510.51,1128.8Q4508.719999999999,1128.83,4506.91,1128.83L4506.65,1128.83C4462.610000000001,1128.78,4429.26,1115.66,4404.719999999999,1088.72C4379.45,1060.98,4364.8,1028.6,4360.08,990.736C4359.93,989.516,4359.780000000001,988.286,4359.65,987.056C4358.98,977.736,4358.37,968.646,4357.82,959.786C4355.16,917.096,4353.8099999999995,879.836,4353.8099999999995,848.736C4353.8099999999995,818.736,4355.13,782.366,4357.6900000000005,740.916C4358.26,731.826,4358.88,722.506,4359.5599999999995,712.956C4363.83,673.656,4379.219999999999,640.416,4406.610000000001,611.326C4432.719999999999,583.606,4465.530000000001,570.126,4506.91,570.126C4548.3,570.126,4581.110000000001,583.606,4607.21,611.326C4631.610000000001,637.226,4646.49,666.436,4652.46,700.226Z" fill-rule="evenodd" fill="#6B50F3" fill-opacity="1"/></g></g></g></svg>