<svg xmlns="http://www.w3.org/2000/svg" width="1300" height="1300.001" viewBox="0 0 1300 1300.001">
  <g id="组_37" data-name="组 37" transform="translate(-5985 -5369.374)">
    <path id="路径_6" data-name="路径 6" d="M2508.235,1993.433c478.321,0,650,171.679,650,650s-171.679,650-650,650-650-171.679-650-650S2029.914,1993.433,2508.235,1993.433Z" transform="translate(4126.765 3375.941)" fill="#fff" fill-rule="evenodd"/>
    <g id="组_30" data-name="组 30" transform="translate(416 4785.705)">
      <path id="路径_1" data-name="路径 1" d="M908.359,2160a18.415,18.415,0,0,1,17.867,22.883c-23.091,92.37-109.4,437.594-134.638,538.555a36.832,36.832,0,0,1-35.734,27.9H624.033a18.415,18.415,0,0,1-17.867-22.883L740.8,2187.9a36.832,36.832,0,0,1,35.734-27.9Z" transform="translate(5697.223 -1179)" fill="#6b50f3" fill-rule="evenodd"/>
      <path id="路径_2" data-name="路径 2" d="M86.166,2182.883A18.414,18.414,0,0,1,104.033,2160H235.854a36.832,36.832,0,0,1,35.734,27.9L315.4,2363.138a73.641,73.641,0,0,1,0,35.729c-14.336,57.35-59.375,237.5-78.684,314.735a9.206,9.206,0,0,1-17.866,0Z" transform="translate(5738.385 -1179)" fill="#6b50f3" fill-rule="evenodd"/>
      <path id="路径_3" data-name="路径 3" d="M328.065,2749.34a36.831,36.831,0,0,1-35.734-45.766c29.128-116.514,105.44-421.764,128.918-515.672a36.832,36.832,0,0,1,35.734-27.9H546.8a36.832,36.832,0,0,1,35.734,27.9c11.52,46.079,34.2,136.81,43.808,175.236a73.642,73.642,0,0,1,0,35.729c-14.336,57.35-59.374,237.5-78.683,314.735a9.207,9.207,0,0,1-17.867,0c-3.038-12.146-6.549-26.2-10.033-40.13a18.417,18.417,0,0,0-35.734,0c-4.263,17.054-8.566,34.265-11.993,47.967a36.831,36.831,0,0,1-35.733,27.9Z" transform="translate(5722.109 -1179)" fill="#6b50f3" fill-rule="evenodd"/>
    </g>
  </g>
</svg>
