<svg xmlns="http://www.w3.org/2000/svg" xmlns:xlink="http://www.w3.org/1999/xlink" fill="none" version="1.1" width="1300" height="1300" viewBox="0 0 1300 1300"><g style="mix-blend-mode:passthrough"><g><g style="mix-blend-mode:passthrough"><g><g style="mix-blend-mode:passthrough"><path d="M0,650C0,1128.32,171.68,1300,650,1300C1128.32,1300,1300,1128.32,1300,650C1300,171.68,1128.32,0,650,0C171.68,0,0,171.68,0,650Z" fill-rule="evenodd" fill="#6B50F3" fill-opacity="1"/></g><g style="mix-blend-mode:passthrough"><g><g style="mix-blend-mode:passthrough"><path d="M752.25852578125,986.67056640625C785.93852578125,986.67056640625,847.75842578125,986.67056640625,884.07842578125,986.67056640625C900.97842578125,986.67056640625,915.7084257812501,975.17056640625,919.80842578125,958.77056640625C945.04842578125,857.81056640625,1031.35842578125,512.58056640625,1054.44842578125,420.21056640625C1055.82842578125,414.72056640625,1054.58842578125,408.89056640625,1051.09842578125,404.41056640625C1047.60842578125,399.95056640625,1042.25842578125,397.33056640625,1036.57842578125,397.33056640625L904.75842578125,397.33056640625C887.8584257812499,397.33056640625,873.12842578125,408.83056640625,869.02842578125,425.23056640625L734.38853278125,963.79056640625C733.00853278125,969.28056640625,734.24853278125,975.11056640625,737.73853578125,979.59056640625C741.22853578125,984.05056640625,746.58852578125,986.67056640625,752.25852578125,986.67056640625Z" fill-rule="evenodd" fill="#FFFFFF" fill-opacity="1"/></g><g style="mix-blend-mode:passthrough"><path d="M406.100046875,950.93056640625C425.41004687500003,873.70056640625,470.450046875,693.55056640625,484.78004687500004,636.20056640625C487.710046875,624.47056640625,487.710046875,612.20056640625,484.78004687500004,600.47056640625L440.970046875,425.23056640625C436.870046875,408.83056640625,422.140046875,397.33056640625,405.24004687499996,397.33056640625L273.420146875,397.33056640625C267.750146875,397.33056640625,262.390156875,399.95056640625,258.900156875,404.41056640625C255.410153875,408.89056640625,254.170153875,414.72056640625,255.550153875,420.21056640625L388.23004687499997,950.93056640625C389.260046875,955.04056640625,392.940046875,957.91056640625,397.16004687500003,957.91056640625C401.390046875,957.91056640625,405.070046875,955.04056640625,406.100046875,950.93056640625Z" fill-rule="evenodd" fill="#FFFFFF" fill-opacity="1"/></g><g style="mix-blend-mode:passthrough"><path d="M625.1395843505859,958.77056640625C628.569584350586,945.07056640625,632.8695843505859,927.86056640625,637.1295843505859,910.80056640625C639.179584350586,902.60056640625,646.549584350586,896.85056640625,654.9995843505859,896.85056640625C663.449584350586,896.85056640625,670.819584350586,902.60056640625,672.8695843505859,910.80056640625C676.3495843505859,924.73056640625,679.8595843505859,938.79056640625,682.8995843505859,950.93056640625C683.929584350586,955.03056640625,687.6095843505859,957.91056640625,691.8395843505859,957.91056640625C696.059584350586,957.91056640625,699.7395843505859,955.03056640625,700.769584350586,950.93056640625C720.079584350586,873.70056640625,765.1195843505859,693.55056640625,779.449584350586,636.20056640625C782.3795843505859,624.47056640625,782.3795843505859,612.20056640625,779.449584350586,600.47056640625C769.8495843505859,562.04056640625,747.1595843505859,471.31056640625,735.6395843505859,425.23056640625C731.539584350586,408.83056640625,716.809584350586,397.33056640625,699.9095843505859,397.33056640625L610.0895843505859,397.33056640625C593.189584350586,397.33056640625,578.4595843505859,408.83056640625,574.3595843505859,425.23056640625C550.8795843505859,519.14056640625,474.5694843505859,824.39056640625,445.43948435058593,940.90056640625C442.68948435058593,951.91056640625,445.15948835058595,963.57056640625,452.1394843505859,972.51056640625C459.11948435058594,981.45056640625,469.8294843505859,986.67056640625,481.16948435058595,986.67056640625L589.4095843505859,986.67056640625C606.309584350586,986.67056640625,621.039584350586,975.17056640625,625.1395843505859,958.77056640625Z" fill-rule="evenodd" fill="#FFFFFF" fill-opacity="1"/></g></g></g></g></g><g style="mix-blend-mode:passthrough"><g><g style="mix-blend-mode:passthrough"><rect x="371" y="885" width="929" height="415" rx="57" fill="#7DE3FC" fill-opacity="1"/></g><g style="mix-blend-mode:passthrough"><path d="M619.25,1095.5Q642,1098.75,653.625,1110.375Q665.25,1122,665.25,1141.25Q665.25,1168.75,643.5,1183.5Q621.75,1198.25,581.5,1198.25L505,1198.25L505,995.75L579,995.75Q616,995.75,635.875,1009.375Q655.75,1023,655.75,1048.25Q655.75,1083.25,619.25,1094L619.25,1095.5ZM551.5,1037.75L551.5,1074.75L573.25,1074.75Q590,1074.75,599,1069.75Q608,1064.75,608,1055.5Q608,1047,599.125,1042.375Q590.25,1037.75,573.5,1037.75L551.5,1037.75ZM576,1156.25Q596,1156.25,606.875,1151Q617.75,1145.75,617.75,1135.75Q617.75,1126.5,606.875,1121.625Q596,1116.75,575.75,1116.75L551.5,1116.75L551.5,1156.25L576,1156.25ZM738.5,1116.75L738.5,1156.25L829.25,1156.25L829.25,1198.25L692,1198.25L692,995.75L826.25,995.75L826.25,1037.75L738.5,1037.75L738.5,1074.75L821.5,1074.75L821.5,1116.75L738.5,1116.75ZM945.75,1198.25L899.25,1198.25L899.25,1039.25L845,1039.25L845,995.75L1000,995.75L1000,1039.25L945.75,1039.25L945.75,1198.25ZM1205.5,1198.25L1156.25,1198.25L1142.5,1157.5L1072,1157.5L1058.25,1198.25L1009,1198.25L1083.5,995.75L1131,995.75L1205.5,1198.25ZM1106.5,1056.25L1087,1114L1127.5,1114L1108,1056.25L1106.5,1056.25Z" fill="#3D3D3D" fill-opacity="1"/></g></g></g></g></g></svg>